<?xml version="1.0" encoding="utf-8" standalone="no"?>
<!DOCTYPE svg PUBLIC "-//W3C//DTD SVG 1.1//EN"
  "http://www.w3.org/Graphics/SVG/1.1/DTD/svg11.dtd">
<svg xmlns:xlink="http://www.w3.org/1999/xlink" width="856.371071pt" height="712.264687pt" viewBox="0 0 856.371071 712.264687" xmlns="http://www.w3.org/2000/svg" version="1.1">
 <metadata>
  <rdf:RDF xmlns:dc="http://purl.org/dc/elements/1.1/" xmlns:cc="http://creativecommons.org/ns#" xmlns:rdf="http://www.w3.org/1999/02/22-rdf-syntax-ns#">
   <cc:Work>
    <dc:type rdf:resource="http://purl.org/dc/dcmitype/StillImage"/>
    <dc:date>2026-03-28T21:21:23.121775</dc:date>
    <dc:format>image/svg+xml</dc:format>
    <dc:creator>
     <cc:Agent>
      <dc:title>Matplotlib v3.10.8, https://matplotlib.org/</dc:title>
     </cc:Agent>
    </dc:creator>
   </cc:Work>
  </rdf:RDF>
 </metadata>
 <defs>
  <style type="text/css">*{stroke-linejoin: round; stroke-linecap: butt}</style>
 </defs>
 <g id="figure_1">
  <g id="patch_1">
   <path d="M 0 712.264687 
L 856.371071 712.264687 
L 856.371071 0 
L 0 0 
z
" style="fill: #ffffff"/>
  </g>
  <g id="axes_1">
   <g id="patch_2">
    <path d="M 55.249375 670.837187 
L 839.627321 670.837187 
L 839.627321 40.877187 
L 55.249375 40.877187 
z
" style="fill: #ffffff"/>
   </g>
   <g id="patch_3">
    <path d="M 55.249375 95.77597 
L 752.474216 95.77597 
L 774.262492 91.464571 
L 796.050769 91.292047 
L 817.839045 91.120173 
L 839.627321 90.948945 
L 839.627321 40.877187 
L 55.249375 40.877187 
z
" clip-path="url(#p85b9644278)" style="fill: #8b0000; opacity: 0.6; stroke: #000000; stroke-width: 1.5; stroke-linejoin: miter"/>
   </g>
   <g id="patch_4">
    <path d="M 452.667534 217.032976 
L 452.667534 95.77597 
L 55.249375 95.77597 
L 55.249375 217.032976 
z
" clip-path="url(#p85b9644278)" style="fill: #dc143c; opacity: 0.6; stroke: #000000; stroke-width: 1.5; stroke-linejoin: miter"/>
   </g>
   <g id="patch_5">
    <path d="M 452.667534 217.032976 
L 586.447551 214.911755 
L 752.474216 187.651569 
L 752.474216 95.77597 
L 452.667534 95.77597 
z
" clip-path="url(#p85b9644278)" style="fill: #ff6b6b; opacity: 0.6; stroke: #000000; stroke-width: 1.5; stroke-linejoin: miter"/>
   </g>
   <g id="patch_6">
    <path d="M 349.739717 272.661343 
L 444.492573 272.229478 
L 586.447551 214.911755 
L 452.667534 217.032976 
L 142.40248 217.032976 
L 142.40248 246.517898 
z
" clip-path="url(#p85b9644278)" style="fill: #ffa500; opacity: 0.6; stroke: #000000; stroke-width: 1.5; stroke-linejoin: miter"/>
   </g>
   <g id="patch_7">
    <path d="M 55.249375 253.202727 
L 142.40248 253.202727 
L 142.40248 217.032976 
L 55.249375 217.032976 
z
" clip-path="url(#p85b9644278)" style="fill: #ffd700; opacity: 0.6; stroke: #000000; stroke-width: 1.5; stroke-linejoin: miter"/>
   </g>
   <g id="patch_8">
    <path d="M 401.857274 299.48238 
L 414.607773 299.218272 
L 444.492573 272.229478 
L 349.739717 272.661343 
L 355.530557 274.971839 
L 361.321397 277.405688 
L 367.112236 279.976808 
L 372.903076 282.701614 
L 378.693915 285.599653 
L 384.484755 288.694458 
L 390.275595 292.014705 
L 396.066434 295.595838 
z
" clip-path="url(#p85b9644278)" style="fill: #228b22; opacity: 0.6; stroke: #000000; stroke-width: 1.5; stroke-linejoin: miter"/>
   </g>
   <g id="patch_9">
    <path d="M 383.903734 321.400931 
L 385.898572 318.37652 
L 387.89341 315.540295 
L 389.888248 312.870201 
L 391.883085 310.347849 
L 393.877923 307.957743 
L 395.872761 305.686703 
L 397.867599 303.523428 
L 399.862436 301.458152 
L 401.857274 299.48238 
L 401.857274 299.48238 
L 396.066434 295.595838 
L 390.275595 292.014705 
L 384.484755 288.694458 
L 378.693915 285.599653 
L 372.903076 282.701614 
L 367.112236 279.976808 
L 361.321397 277.405688 
L 355.530557 274.971839 
L 349.739717 272.661343 
L 349.739717 272.661343 
L 334.449189 270.478749 
L 319.158661 268.062209 
L 303.868133 265.767318 
L 288.577605 263.582412 
L 273.287077 261.49743 
L 257.996549 259.50363 
L 242.70602 257.593371 
L 227.415492 255.759931 
L 212.124964 253.99737 
L 194.694343 253.202727 
L 177.263722 253.202727 
L 159.833101 253.202727 
L 142.40248 253.202727 
L 55.249375 253.202727 
L 55.249375 292.644902 
L 212.124964 292.644902 
L 224.394876 323.404238 
L 236.664789 323.246974 
L 248.934701 323.09025 
L 261.204613 322.934063 
L 273.474525 322.778409 
L 285.744437 322.623285 
L 298.014349 322.468687 
L 310.284261 322.314611 
L 322.554174 322.161054 
L 334.824086 322.008012 
L 347.093998 321.855482 
L 359.36391 321.703461 
L 371.633822 321.551945 
z
" clip-path="url(#p85b9644278)" style="fill: #4169e1; opacity: 0.6; stroke: #000000; stroke-width: 1.5; stroke-linejoin: miter"/>
   </g>
   <g id="patch_10">
    <path d="M 55.249375 325.629349 
L 63.505985 325.518175 
L 71.762595 325.407271 
L 80.019205 325.296637 
L 88.275815 325.18627 
L 96.532425 325.07617 
L 104.789035 324.966335 
L 113.045645 324.856764 
L 121.302255 324.747456 
L 129.558865 324.638409 
L 137.815475 324.529622 
L 146.072085 324.421094 
L 154.328695 324.312824 
L 162.585304 324.20481 
L 170.841914 324.097052 
L 179.098524 323.989547 
L 187.355134 323.882296 
L 195.611744 323.775296 
L 203.868354 323.668547 
L 212.124964 323.562047 
L 212.124964 292.644902 
L 194.694343 292.644902 
L 177.263722 292.644902 
L 159.833101 292.644902 
L 142.40248 292.644902 
L 124.971859 292.644902 
L 107.541238 292.644902 
L 90.110617 292.644902 
L 72.679996 292.644902 
L 55.249375 292.644902 
z
" clip-path="url(#p85b9644278)" style="fill: #98fb98; opacity: 0.6; stroke: #000000; stroke-width: 1.5; stroke-linejoin: miter"/>
   </g>
   <g id="patch_11">
    <path d="M 383.903734 321.400931 
L 405.892463 322.5724 
L 414.607773 299.218272 
L 401.857274 299.48238 
L 399.862436 301.458152 
L 397.867599 303.523428 
L 395.872761 305.686703 
L 393.877923 307.957743 
L 391.883085 310.347849 
L 389.888248 312.870201 
L 387.89341 315.540295 
L 385.898572 318.37652 
z
" clip-path="url(#p85b9644278)" style="fill: #90ee90; opacity: 0.6; stroke: #000000; stroke-width: 1.5; stroke-linejoin: miter"/>
   </g>
   <g id="patch_12">
    <path d="M 142.40248 670.837187 
L 444.231114 670.837187 
L 442.21329 442.041985 
L 440.195466 411.735176 
L 438.177643 394.434172 
L 436.159819 382.412114 
L 434.141995 373.256416 
L 432.124171 365.897387 
L 430.106348 359.767285 
L 428.088524 354.528937 
L 426.0707 349.965937 
L 424.052876 345.931232 
L 422.035053 342.320421 
L 420.017229 339.056766 
L 417.999405 336.082262 
L 415.981582 333.352033 
L 413.963758 330.830677 
L 411.945934 328.489804 
L 409.92811 326.306319 
L 407.910287 324.261204 
L 405.892463 322.338623 
L 405.892463 322.5724 
L 383.903734 321.400931 
L 383.903734 321.400931 
L 368.624419 321.58906 
L 353.345104 321.777969 
L 338.065788 321.967664 
L 322.786473 322.158152 
L 307.507157 322.349438 
L 292.227842 322.54153 
L 276.948526 322.734435 
L 261.669211 322.92816 
L 246.389896 323.122711 
L 231.11058 323.318095 
L 215.831265 323.514321 
L 200.551949 323.711394 
L 185.272634 323.909323 
L 169.993318 324.108115 
L 154.714003 324.307778 
L 139.434688 324.508318 
L 124.155372 324.709745 
L 108.876057 324.912065 
L 93.596741 325.115286 
L 93.596741 670.837187 
L 105.798176 670.837187 
L 117.999611 670.837187 
L 130.201045 670.837187 
z
" clip-path="url(#p85b9644278)" style="fill: #add8e6; opacity: 0.6; stroke: #000000; stroke-width: 1.5; stroke-linejoin: miter"/>
   </g>
   <g id="patch_13">
    <path d="M 93.596741 670.837187 
L 93.596741 325.115286 
L 93.596741 325.115286 
L 89.335923 325.172119 
L 85.075104 325.229023 
L 80.814286 325.285997 
L 76.553467 325.343043 
L 72.292649 325.400161 
L 68.03183 325.45735 
L 63.771012 325.514611 
L 59.510193 325.571944 
L 55.249375 325.629349 
L 55.249375 670.837187 
z
" clip-path="url(#p85b9644278)" style="fill: #b0e0e6; opacity: 0.6; stroke: #000000; stroke-width: 1.5; stroke-linejoin: miter"/>
   </g>
   <g id="matplotlib.axis_1">
    <g id="xtick_1">
     <g id="line2d_1">
      <path d="M 55.249375 670.837187 
L 55.249375 40.877187 
" clip-path="url(#p85b9644278)" style="fill: none; stroke-dasharray: 2.96,1.28; stroke-dashoffset: 0; stroke: #b0b0b0; stroke-opacity: 0.5; stroke-width: 0.8"/>
     </g>
     <g id="line2d_2">
      <defs>
       <path id="m336de39363" d="M 0 0 
L 0 3.5 
" style="stroke: #000000; stroke-width: 0.8"/>
      </defs>
      <g>
       <use xlink:href="#m336de39363" x="55.249375" y="670.837187" style="stroke: #000000; stroke-width: 0.8"/>
      </g>
     </g>
     <g id="text_1">
      <!-- 50 -->
      <g transform="translate(48.886875 685.435625) scale(0.1 -0.1)">
       <defs>
        <path id="DejaVuSans-35" d="M 691 4666 
L 3169 4666 
L 3169 4134 
L 1269 4134 
L 1269 2991 
Q 1406 3038 1543 3061 
Q 1681 3084 1819 3084 
Q 2600 3084 3056 2656 
Q 3513 2228 3513 1497 
Q 3513 744 3044 326 
Q 2575 -91 1722 -91 
Q 1428 -91 1123 -41 
Q 819 9 494 109 
L 494 744 
Q 775 591 1075 516 
Q 1375 441 1709 441 
Q 2250 441 2565 725 
Q 2881 1009 2881 1497 
Q 2881 1984 2565 2268 
Q 2250 2553 1709 2553 
Q 1456 2553 1204 2497 
Q 953 2441 691 2322 
L 691 4666 
z
" transform="scale(0.015625)"/>
        <path id="DejaVuSans-30" d="M 2034 4250 
Q 1547 4250 1301 3770 
Q 1056 3291 1056 2328 
Q 1056 1369 1301 889 
Q 1547 409 2034 409 
Q 2525 409 2770 889 
Q 3016 1369 3016 2328 
Q 3016 3291 2770 3770 
Q 2525 4250 2034 4250 
z
M 2034 4750 
Q 2819 4750 3233 4129 
Q 3647 3509 3647 2328 
Q 3647 1150 3233 529 
Q 2819 -91 2034 -91 
Q 1250 -91 836 529 
Q 422 1150 422 2328 
Q 422 3509 836 4129 
Q 1250 4750 2034 4750 
z
" transform="scale(0.015625)"/>
       </defs>
       <use xlink:href="#DejaVuSans-35"/>
       <use xlink:href="#DejaVuSans-30" transform="translate(63.623047 0)"/>
      </g>
     </g>
    </g>
    <g id="xtick_2">
     <g id="line2d_3">
      <path d="M 142.40248 670.837187 
L 142.40248 40.877187 
" clip-path="url(#p85b9644278)" style="fill: none; stroke-dasharray: 2.96,1.28; stroke-dashoffset: 0; stroke: #b0b0b0; stroke-opacity: 0.5; stroke-width: 0.8"/>
     </g>
     <g id="line2d_4">
      <g>
       <use xlink:href="#m336de39363" x="142.40248" y="670.837187" style="stroke: #000000; stroke-width: 0.8"/>
      </g>
     </g>
     <g id="text_2">
      <!-- 100 -->
      <g transform="translate(132.85873 685.435625) scale(0.1 -0.1)">
       <defs>
        <path id="DejaVuSans-31" d="M 794 531 
L 1825 531 
L 1825 4091 
L 703 3866 
L 703 4441 
L 1819 4666 
L 2450 4666 
L 2450 531 
L 3481 531 
L 3481 0 
L 794 0 
L 794 531 
z
" transform="scale(0.015625)"/>
       </defs>
       <use xlink:href="#DejaVuSans-31"/>
       <use xlink:href="#DejaVuSans-30" transform="translate(63.623047 0)"/>
       <use xlink:href="#DejaVuSans-30" transform="translate(127.246094 0)"/>
      </g>
     </g>
    </g>
    <g id="xtick_3">
     <g id="line2d_5">
      <path d="M 229.555585 670.837187 
L 229.555585 40.877187 
" clip-path="url(#p85b9644278)" style="fill: none; stroke-dasharray: 2.96,1.28; stroke-dashoffset: 0; stroke: #b0b0b0; stroke-opacity: 0.5; stroke-width: 0.8"/>
     </g>
     <g id="line2d_6">
      <g>
       <use xlink:href="#m336de39363" x="229.555585" y="670.837187" style="stroke: #000000; stroke-width: 0.8"/>
      </g>
     </g>
     <g id="text_3">
      <!-- 150 -->
      <g transform="translate(220.011835 685.435625) scale(0.1 -0.1)">
       <use xlink:href="#DejaVuSans-31"/>
       <use xlink:href="#DejaVuSans-35" transform="translate(63.623047 0)"/>
       <use xlink:href="#DejaVuSans-30" transform="translate(127.246094 0)"/>
      </g>
     </g>
    </g>
    <g id="xtick_4">
     <g id="line2d_7">
      <path d="M 316.70869 670.837187 
L 316.70869 40.877187 
" clip-path="url(#p85b9644278)" style="fill: none; stroke-dasharray: 2.96,1.28; stroke-dashoffset: 0; stroke: #b0b0b0; stroke-opacity: 0.5; stroke-width: 0.8"/>
     </g>
     <g id="line2d_8">
      <g>
       <use xlink:href="#m336de39363" x="316.70869" y="670.837187" style="stroke: #000000; stroke-width: 0.8"/>
      </g>
     </g>
     <g id="text_4">
      <!-- 200 -->
      <g transform="translate(307.16494 685.435625) scale(0.1 -0.1)">
       <defs>
        <path id="DejaVuSans-32" d="M 1228 531 
L 3431 531 
L 3431 0 
L 469 0 
L 469 531 
Q 828 903 1448 1529 
Q 2069 2156 2228 2338 
Q 2531 2678 2651 2914 
Q 2772 3150 2772 3378 
Q 2772 3750 2511 3984 
Q 2250 4219 1831 4219 
Q 1534 4219 1204 4116 
Q 875 4013 500 3803 
L 500 4441 
Q 881 4594 1212 4672 
Q 1544 4750 1819 4750 
Q 2544 4750 2975 4387 
Q 3406 4025 3406 3419 
Q 3406 3131 3298 2873 
Q 3191 2616 2906 2266 
Q 2828 2175 2409 1742 
Q 1991 1309 1228 531 
z
" transform="scale(0.015625)"/>
       </defs>
       <use xlink:href="#DejaVuSans-32"/>
       <use xlink:href="#DejaVuSans-30" transform="translate(63.623047 0)"/>
       <use xlink:href="#DejaVuSans-30" transform="translate(127.246094 0)"/>
      </g>
     </g>
    </g>
    <g id="xtick_5">
     <g id="line2d_9">
      <path d="M 403.861795 670.837187 
L 403.861795 40.877187 
" clip-path="url(#p85b9644278)" style="fill: none; stroke-dasharray: 2.96,1.28; stroke-dashoffset: 0; stroke: #b0b0b0; stroke-opacity: 0.5; stroke-width: 0.8"/>
     </g>
     <g id="line2d_10">
      <g>
       <use xlink:href="#m336de39363" x="403.861795" y="670.837187" style="stroke: #000000; stroke-width: 0.8"/>
      </g>
     </g>
     <g id="text_5">
      <!-- 250 -->
      <g transform="translate(394.318045 685.435625) scale(0.1 -0.1)">
       <use xlink:href="#DejaVuSans-32"/>
       <use xlink:href="#DejaVuSans-35" transform="translate(63.623047 0)"/>
       <use xlink:href="#DejaVuSans-30" transform="translate(127.246094 0)"/>
      </g>
     </g>
    </g>
    <g id="xtick_6">
     <g id="line2d_11">
      <path d="M 491.014901 670.837187 
L 491.014901 40.877187 
" clip-path="url(#p85b9644278)" style="fill: none; stroke-dasharray: 2.96,1.28; stroke-dashoffset: 0; stroke: #b0b0b0; stroke-opacity: 0.5; stroke-width: 0.8"/>
     </g>
     <g id="line2d_12">
      <g>
       <use xlink:href="#m336de39363" x="491.014901" y="670.837187" style="stroke: #000000; stroke-width: 0.8"/>
      </g>
     </g>
     <g id="text_6">
      <!-- 300 -->
      <g transform="translate(481.471151 685.435625) scale(0.1 -0.1)">
       <defs>
        <path id="DejaVuSans-33" d="M 2597 2516 
Q 3050 2419 3304 2112 
Q 3559 1806 3559 1356 
Q 3559 666 3084 287 
Q 2609 -91 1734 -91 
Q 1441 -91 1130 -33 
Q 819 25 488 141 
L 488 750 
Q 750 597 1062 519 
Q 1375 441 1716 441 
Q 2309 441 2620 675 
Q 2931 909 2931 1356 
Q 2931 1769 2642 2001 
Q 2353 2234 1838 2234 
L 1294 2234 
L 1294 2753 
L 1863 2753 
Q 2328 2753 2575 2939 
Q 2822 3125 2822 3475 
Q 2822 3834 2567 4026 
Q 2313 4219 1838 4219 
Q 1578 4219 1281 4162 
Q 984 4106 628 3988 
L 628 4550 
Q 988 4650 1302 4700 
Q 1616 4750 1894 4750 
Q 2613 4750 3031 4423 
Q 3450 4097 3450 3541 
Q 3450 3153 3228 2886 
Q 3006 2619 2597 2516 
z
" transform="scale(0.015625)"/>
       </defs>
       <use xlink:href="#DejaVuSans-33"/>
       <use xlink:href="#DejaVuSans-30" transform="translate(63.623047 0)"/>
       <use xlink:href="#DejaVuSans-30" transform="translate(127.246094 0)"/>
      </g>
     </g>
    </g>
    <g id="xtick_7">
     <g id="line2d_13">
      <path d="M 578.168006 670.837187 
L 578.168006 40.877187 
" clip-path="url(#p85b9644278)" style="fill: none; stroke-dasharray: 2.96,1.28; stroke-dashoffset: 0; stroke: #b0b0b0; stroke-opacity: 0.5; stroke-width: 0.8"/>
     </g>
     <g id="line2d_14">
      <g>
       <use xlink:href="#m336de39363" x="578.168006" y="670.837187" style="stroke: #000000; stroke-width: 0.8"/>
      </g>
     </g>
     <g id="text_7">
      <!-- 350 -->
      <g transform="translate(568.624256 685.435625) scale(0.1 -0.1)">
       <use xlink:href="#DejaVuSans-33"/>
       <use xlink:href="#DejaVuSans-35" transform="translate(63.623047 0)"/>
       <use xlink:href="#DejaVuSans-30" transform="translate(127.246094 0)"/>
      </g>
     </g>
    </g>
    <g id="xtick_8">
     <g id="line2d_15">
      <path d="M 665.321111 670.837187 
L 665.321111 40.877187 
" clip-path="url(#p85b9644278)" style="fill: none; stroke-dasharray: 2.96,1.28; stroke-dashoffset: 0; stroke: #b0b0b0; stroke-opacity: 0.5; stroke-width: 0.8"/>
     </g>
     <g id="line2d_16">
      <g>
       <use xlink:href="#m336de39363" x="665.321111" y="670.837187" style="stroke: #000000; stroke-width: 0.8"/>
      </g>
     </g>
     <g id="text_8">
      <!-- 400 -->
      <g transform="translate(655.777361 685.435625) scale(0.1 -0.1)">
       <defs>
        <path id="DejaVuSans-34" d="M 2419 4116 
L 825 1625 
L 2419 1625 
L 2419 4116 
z
M 2253 4666 
L 3047 4666 
L 3047 1625 
L 3713 1625 
L 3713 1100 
L 3047 1100 
L 3047 0 
L 2419 0 
L 2419 1100 
L 313 1100 
L 313 1709 
L 2253 4666 
z
" transform="scale(0.015625)"/>
       </defs>
       <use xlink:href="#DejaVuSans-34"/>
       <use xlink:href="#DejaVuSans-30" transform="translate(63.623047 0)"/>
       <use xlink:href="#DejaVuSans-30" transform="translate(127.246094 0)"/>
      </g>
     </g>
    </g>
    <g id="xtick_9">
     <g id="line2d_17">
      <path d="M 752.474216 670.837187 
L 752.474216 40.877187 
" clip-path="url(#p85b9644278)" style="fill: none; stroke-dasharray: 2.96,1.28; stroke-dashoffset: 0; stroke: #b0b0b0; stroke-opacity: 0.5; stroke-width: 0.8"/>
     </g>
     <g id="line2d_18">
      <g>
       <use xlink:href="#m336de39363" x="752.474216" y="670.837187" style="stroke: #000000; stroke-width: 0.8"/>
      </g>
     </g>
     <g id="text_9">
      <!-- 450 -->
      <g transform="translate(742.930466 685.435625) scale(0.1 -0.1)">
       <use xlink:href="#DejaVuSans-34"/>
       <use xlink:href="#DejaVuSans-35" transform="translate(63.623047 0)"/>
       <use xlink:href="#DejaVuSans-30" transform="translate(127.246094 0)"/>
      </g>
     </g>
    </g>
    <g id="xtick_10">
     <g id="line2d_19">
      <path d="M 839.627321 670.837187 
L 839.627321 40.877187 
" clip-path="url(#p85b9644278)" style="fill: none; stroke-dasharray: 2.96,1.28; stroke-dashoffset: 0; stroke: #b0b0b0; stroke-opacity: 0.5; stroke-width: 0.8"/>
     </g>
     <g id="line2d_20">
      <g>
       <use xlink:href="#m336de39363" x="839.627321" y="670.837187" style="stroke: #000000; stroke-width: 0.8"/>
      </g>
     </g>
     <g id="text_10">
      <!-- 500 -->
      <g transform="translate(830.083571 685.435625) scale(0.1 -0.1)">
       <use xlink:href="#DejaVuSans-35"/>
       <use xlink:href="#DejaVuSans-30" transform="translate(63.623047 0)"/>
       <use xlink:href="#DejaVuSans-30" transform="translate(127.246094 0)"/>
      </g>
     </g>
    </g>
    <g id="text_11">
     <!-- Temperature (K) -->
     <g transform="translate(382.826161 702.153125) scale(0.14 -0.14)">
      <defs>
       <path id="DejaVuSans-Bold-54" d="M 31 4666 
L 4331 4666 
L 4331 3756 
L 2784 3756 
L 2784 0 
L 1581 0 
L 1581 3756 
L 31 3756 
L 31 4666 
z
" transform="scale(0.015625)"/>
       <path id="DejaVuSans-Bold-65" d="M 4031 1759 
L 4031 1441 
L 1416 1441 
Q 1456 1047 1700 850 
Q 1944 653 2381 653 
Q 2734 653 3104 758 
Q 3475 863 3866 1075 
L 3866 213 
Q 3469 63 3072 -14 
Q 2675 -91 2278 -91 
Q 1328 -91 801 392 
Q 275 875 275 1747 
Q 275 2603 792 3093 
Q 1309 3584 2216 3584 
Q 3041 3584 3536 3087 
Q 4031 2591 4031 1759 
z
M 2881 2131 
Q 2881 2450 2695 2645 
Q 2509 2841 2209 2841 
Q 1884 2841 1681 2658 
Q 1478 2475 1428 2131 
L 2881 2131 
z
" transform="scale(0.015625)"/>
       <path id="DejaVuSans-Bold-6d" d="M 3781 2919 
Q 3994 3244 4286 3414 
Q 4578 3584 4928 3584 
Q 5531 3584 5847 3212 
Q 6163 2841 6163 2131 
L 6163 0 
L 5038 0 
L 5038 1825 
Q 5041 1866 5042 1909 
Q 5044 1953 5044 2034 
Q 5044 2406 4934 2573 
Q 4825 2741 4581 2741 
Q 4263 2741 4089 2478 
Q 3916 2216 3909 1719 
L 3909 0 
L 2784 0 
L 2784 1825 
Q 2784 2406 2684 2573 
Q 2584 2741 2328 2741 
Q 2006 2741 1831 2477 
Q 1656 2213 1656 1722 
L 1656 0 
L 531 0 
L 531 3500 
L 1656 3500 
L 1656 2988 
Q 1863 3284 2130 3434 
Q 2397 3584 2719 3584 
Q 3081 3584 3359 3409 
Q 3638 3234 3781 2919 
z
" transform="scale(0.015625)"/>
       <path id="DejaVuSans-Bold-70" d="M 1656 506 
L 1656 -1331 
L 538 -1331 
L 538 3500 
L 1656 3500 
L 1656 2988 
Q 1888 3294 2169 3439 
Q 2450 3584 2816 3584 
Q 3463 3584 3878 3070 
Q 4294 2556 4294 1747 
Q 4294 938 3878 423 
Q 3463 -91 2816 -91 
Q 2450 -91 2169 54 
Q 1888 200 1656 506 
z
M 2400 2772 
Q 2041 2772 1848 2508 
Q 1656 2244 1656 1747 
Q 1656 1250 1848 986 
Q 2041 722 2400 722 
Q 2759 722 2948 984 
Q 3138 1247 3138 1747 
Q 3138 2247 2948 2509 
Q 2759 2772 2400 2772 
z
" transform="scale(0.015625)"/>
       <path id="DejaVuSans-Bold-72" d="M 3138 2547 
Q 2991 2616 2845 2648 
Q 2700 2681 2553 2681 
Q 2122 2681 1889 2404 
Q 1656 2128 1656 1613 
L 1656 0 
L 538 0 
L 538 3500 
L 1656 3500 
L 1656 2925 
Q 1872 3269 2151 3426 
Q 2431 3584 2822 3584 
Q 2878 3584 2943 3579 
Q 3009 3575 3134 3559 
L 3138 2547 
z
" transform="scale(0.015625)"/>
       <path id="DejaVuSans-Bold-61" d="M 2106 1575 
Q 1756 1575 1579 1456 
Q 1403 1338 1403 1106 
Q 1403 894 1545 773 
Q 1688 653 1941 653 
Q 2256 653 2472 879 
Q 2688 1106 2688 1447 
L 2688 1575 
L 2106 1575 
z
M 3816 1997 
L 3816 0 
L 2688 0 
L 2688 519 
Q 2463 200 2181 54 
Q 1900 -91 1497 -91 
Q 953 -91 614 226 
Q 275 544 275 1050 
Q 275 1666 698 1953 
Q 1122 2241 2028 2241 
L 2688 2241 
L 2688 2328 
Q 2688 2594 2478 2717 
Q 2269 2841 1825 2841 
Q 1466 2841 1156 2769 
Q 847 2697 581 2553 
L 581 3406 
Q 941 3494 1303 3539 
Q 1666 3584 2028 3584 
Q 2975 3584 3395 3211 
Q 3816 2838 3816 1997 
z
" transform="scale(0.015625)"/>
       <path id="DejaVuSans-Bold-74" d="M 1759 4494 
L 1759 3500 
L 2913 3500 
L 2913 2700 
L 1759 2700 
L 1759 1216 
Q 1759 972 1856 886 
Q 1953 800 2241 800 
L 2816 800 
L 2816 0 
L 1856 0 
Q 1194 0 917 276 
Q 641 553 641 1216 
L 641 2700 
L 84 2700 
L 84 3500 
L 641 3500 
L 641 4494 
L 1759 4494 
z
" transform="scale(0.015625)"/>
       <path id="DejaVuSans-Bold-75" d="M 500 1363 
L 500 3500 
L 1625 3500 
L 1625 3150 
Q 1625 2866 1622 2436 
Q 1619 2006 1619 1863 
Q 1619 1441 1641 1255 
Q 1663 1069 1716 984 
Q 1784 875 1895 815 
Q 2006 756 2150 756 
Q 2500 756 2700 1025 
Q 2900 1294 2900 1772 
L 2900 3500 
L 4019 3500 
L 4019 0 
L 2900 0 
L 2900 506 
Q 2647 200 2364 54 
Q 2081 -91 1741 -91 
Q 1134 -91 817 281 
Q 500 653 500 1363 
z
" transform="scale(0.015625)"/>
       <path id="DejaVuSans-Bold-20" transform="scale(0.015625)"/>
       <path id="DejaVuSans-Bold-28" d="M 2413 -844 
L 1484 -844 
Q 1006 -72 778 623 
Q 550 1319 550 2003 
Q 550 2688 779 3389 
Q 1009 4091 1484 4856 
L 2413 4856 
Q 2013 4116 1813 3408 
Q 1613 2700 1613 2009 
Q 1613 1319 1811 609 
Q 2009 -100 2413 -844 
z
" transform="scale(0.015625)"/>
       <path id="DejaVuSans-Bold-4b" d="M 588 4666 
L 1791 4666 
L 1791 2963 
L 3525 4666 
L 4922 4666 
L 2675 2456 
L 5153 0 
L 3647 0 
L 1791 1838 
L 1791 0 
L 588 0 
L 588 4666 
z
" transform="scale(0.015625)"/>
       <path id="DejaVuSans-Bold-29" d="M 513 -844 
Q 913 -100 1113 609 
Q 1313 1319 1313 2009 
Q 1313 2700 1113 3408 
Q 913 4116 513 4856 
L 1441 4856 
Q 1916 4091 2145 3389 
Q 2375 2688 2375 2003 
Q 2375 1319 2147 623 
Q 1919 -72 1441 -844 
L 513 -844 
z
" transform="scale(0.015625)"/>
      </defs>
      <use xlink:href="#DejaVuSans-Bold-54"/>
      <use xlink:href="#DejaVuSans-Bold-65" transform="translate(54.962891 0)"/>
      <use xlink:href="#DejaVuSans-Bold-6d" transform="translate(122.785156 0)"/>
      <use xlink:href="#DejaVuSans-Bold-70" transform="translate(226.984375 0)"/>
      <use xlink:href="#DejaVuSans-Bold-65" transform="translate(298.566406 0)"/>
      <use xlink:href="#DejaVuSans-Bold-72" transform="translate(366.388672 0)"/>
      <use xlink:href="#DejaVuSans-Bold-61" transform="translate(415.705078 0)"/>
      <use xlink:href="#DejaVuSans-Bold-74" transform="translate(483.185547 0)"/>
      <use xlink:href="#DejaVuSans-Bold-75" transform="translate(530.988281 0)"/>
      <use xlink:href="#DejaVuSans-Bold-72" transform="translate(602.179688 0)"/>
      <use xlink:href="#DejaVuSans-Bold-65" transform="translate(651.496094 0)"/>
      <use xlink:href="#DejaVuSans-Bold-20" transform="translate(719.318359 0)"/>
      <use xlink:href="#DejaVuSans-Bold-28" transform="translate(754.132812 0)"/>
      <use xlink:href="#DejaVuSans-Bold-4b" transform="translate(799.835938 0)"/>
      <use xlink:href="#DejaVuSans-Bold-29" transform="translate(877.326172 0)"/>
     </g>
    </g>
   </g>
   <g id="matplotlib.axis_2">
    <g id="ytick_1">
     <g id="line2d_21">
      <path d="M 55.249375 670.837187 
L 839.627321 670.837187 
" clip-path="url(#p85b9644278)" style="fill: none; stroke-dasharray: 2.96,1.28; stroke-dashoffset: 0; stroke: #b0b0b0; stroke-opacity: 0.5; stroke-width: 0.8"/>
     </g>
     <g id="line2d_22">
      <defs>
       <path id="m52b52a3b75" d="M 0 0 
L -3.5 0 
" style="stroke: #000000; stroke-width: 0.8"/>
      </defs>
      <g>
       <use xlink:href="#m52b52a3b75" x="55.249375" y="670.837187" style="stroke: #000000; stroke-width: 0.8"/>
      </g>
     </g>
     <g id="text_12">
      <!-- $\mathdefault{10^{-1}}$ -->
      <g transform="translate(24.749375 674.636406) scale(0.1 -0.1)">
       <defs>
        <path id="DejaVuSans-2212" d="M 678 2272 
L 4684 2272 
L 4684 1741 
L 678 1741 
L 678 2272 
z
" transform="scale(0.015625)"/>
       </defs>
       <use xlink:href="#DejaVuSans-31" transform="translate(0 0.684375)"/>
       <use xlink:href="#DejaVuSans-30" transform="translate(63.623047 0.684375)"/>
       <use xlink:href="#DejaVuSans-2212" transform="translate(128.203125 38.965625) scale(0.7)"/>
       <use xlink:href="#DejaVuSans-31" transform="translate(186.855469 38.965625) scale(0.7)"/>
      </g>
     </g>
    </g>
    <g id="ytick_2">
     <g id="line2d_23">
      <path d="M 55.249375 565.843854 
L 839.627321 565.843854 
" clip-path="url(#p85b9644278)" style="fill: none; stroke-dasharray: 2.96,1.28; stroke-dashoffset: 0; stroke: #b0b0b0; stroke-opacity: 0.5; stroke-width: 0.8"/>
     </g>
     <g id="line2d_24">
      <g>
       <use xlink:href="#m52b52a3b75" x="55.249375" y="565.843854" style="stroke: #000000; stroke-width: 0.8"/>
      </g>
     </g>
     <g id="text_13">
      <!-- $\mathdefault{10^{0}}$ -->
      <g transform="translate(30.649375 569.643073) scale(0.1 -0.1)">
       <use xlink:href="#DejaVuSans-31" transform="translate(0 0.765625)"/>
       <use xlink:href="#DejaVuSans-30" transform="translate(63.623047 0.765625)"/>
       <use xlink:href="#DejaVuSans-30" transform="translate(128.203125 39.046875) scale(0.7)"/>
      </g>
     </g>
    </g>
    <g id="ytick_3">
     <g id="line2d_25">
      <path d="M 55.249375 460.850521 
L 839.627321 460.850521 
" clip-path="url(#p85b9644278)" style="fill: none; stroke-dasharray: 2.96,1.28; stroke-dashoffset: 0; stroke: #b0b0b0; stroke-opacity: 0.5; stroke-width: 0.8"/>
     </g>
     <g id="line2d_26">
      <g>
       <use xlink:href="#m52b52a3b75" x="55.249375" y="460.850521" style="stroke: #000000; stroke-width: 0.8"/>
      </g>
     </g>
     <g id="text_14">
      <!-- $\mathdefault{10^{1}}$ -->
      <g transform="translate(30.649375 464.64974) scale(0.1 -0.1)">
       <use xlink:href="#DejaVuSans-31" transform="translate(0 0.684375)"/>
       <use xlink:href="#DejaVuSans-30" transform="translate(63.623047 0.684375)"/>
       <use xlink:href="#DejaVuSans-31" transform="translate(128.203125 38.965625) scale(0.7)"/>
      </g>
     </g>
    </g>
    <g id="ytick_4">
     <g id="line2d_27">
      <path d="M 55.249375 355.857187 
L 839.627321 355.857187 
" clip-path="url(#p85b9644278)" style="fill: none; stroke-dasharray: 2.96,1.28; stroke-dashoffset: 0; stroke: #b0b0b0; stroke-opacity: 0.5; stroke-width: 0.8"/>
     </g>
     <g id="line2d_28">
      <g>
       <use xlink:href="#m52b52a3b75" x="55.249375" y="355.857187" style="stroke: #000000; stroke-width: 0.8"/>
      </g>
     </g>
     <g id="text_15">
      <!-- $\mathdefault{10^{2}}$ -->
      <g transform="translate(30.649375 359.656406) scale(0.1 -0.1)">
       <use xlink:href="#DejaVuSans-31" transform="translate(0 0.765625)"/>
       <use xlink:href="#DejaVuSans-30" transform="translate(63.623047 0.765625)"/>
       <use xlink:href="#DejaVuSans-32" transform="translate(128.203125 39.046875) scale(0.7)"/>
      </g>
     </g>
    </g>
    <g id="ytick_5">
     <g id="line2d_29">
      <path d="M 55.249375 250.863854 
L 839.627321 250.863854 
" clip-path="url(#p85b9644278)" style="fill: none; stroke-dasharray: 2.96,1.28; stroke-dashoffset: 0; stroke: #b0b0b0; stroke-opacity: 0.5; stroke-width: 0.8"/>
     </g>
     <g id="line2d_30">
      <g>
       <use xlink:href="#m52b52a3b75" x="55.249375" y="250.863854" style="stroke: #000000; stroke-width: 0.8"/>
      </g>
     </g>
     <g id="text_16">
      <!-- $\mathdefault{10^{3}}$ -->
      <g transform="translate(30.649375 254.663073) scale(0.1 -0.1)">
       <use xlink:href="#DejaVuSans-31" transform="translate(0 0.765625)"/>
       <use xlink:href="#DejaVuSans-30" transform="translate(63.623047 0.765625)"/>
       <use xlink:href="#DejaVuSans-33" transform="translate(128.203125 39.046875) scale(0.7)"/>
      </g>
     </g>
    </g>
    <g id="ytick_6">
     <g id="line2d_31">
      <path d="M 55.249375 145.870521 
L 839.627321 145.870521 
" clip-path="url(#p85b9644278)" style="fill: none; stroke-dasharray: 2.96,1.28; stroke-dashoffset: 0; stroke: #b0b0b0; stroke-opacity: 0.5; stroke-width: 0.8"/>
     </g>
     <g id="line2d_32">
      <g>
       <use xlink:href="#m52b52a3b75" x="55.249375" y="145.870521" style="stroke: #000000; stroke-width: 0.8"/>
      </g>
     </g>
     <g id="text_17">
      <!-- $\mathdefault{10^{4}}$ -->
      <g transform="translate(30.649375 149.66974) scale(0.1 -0.1)">
       <use xlink:href="#DejaVuSans-31" transform="translate(0 0.684375)"/>
       <use xlink:href="#DejaVuSans-30" transform="translate(63.623047 0.684375)"/>
       <use xlink:href="#DejaVuSans-34" transform="translate(128.203125 38.965625) scale(0.7)"/>
      </g>
     </g>
    </g>
    <g id="ytick_7">
     <g id="line2d_33">
      <path d="M 55.249375 40.877187 
L 839.627321 40.877187 
" clip-path="url(#p85b9644278)" style="fill: none; stroke-dasharray: 2.96,1.28; stroke-dashoffset: 0; stroke: #b0b0b0; stroke-opacity: 0.5; stroke-width: 0.8"/>
     </g>
     <g id="line2d_34">
      <g>
       <use xlink:href="#m52b52a3b75" x="55.249375" y="40.877187" style="stroke: #000000; stroke-width: 0.8"/>
      </g>
     </g>
     <g id="text_18">
      <!-- $\mathdefault{10^{5}}$ -->
      <g transform="translate(30.649375 44.676406) scale(0.1 -0.1)">
       <use xlink:href="#DejaVuSans-31" transform="translate(0 0.684375)"/>
       <use xlink:href="#DejaVuSans-30" transform="translate(63.623047 0.684375)"/>
       <use xlink:href="#DejaVuSans-35" transform="translate(128.203125 38.965625) scale(0.7)"/>
      </g>
     </g>
    </g>
    <g id="ytick_8">
     <g id="line2d_35">
      <path d="M 55.249375 639.231045 
L 839.627321 639.231045 
" clip-path="url(#p85b9644278)" style="fill: none; stroke-dasharray: 2.96,1.28; stroke-dashoffset: 0; stroke: #b0b0b0; stroke-opacity: 0.5; stroke-width: 0.8"/>
     </g>
     <g id="line2d_36">
      <defs>
       <path id="m09baa3b541" d="M 0 0 
L -2 0 
" style="stroke: #000000; stroke-width: 0.6"/>
      </defs>
      <g>
       <use xlink:href="#m09baa3b541" x="55.249375" y="639.231045" style="stroke: #000000; stroke-width: 0.6"/>
      </g>
     </g>
    </g>
    <g id="ytick_9">
     <g id="line2d_37">
      <path d="M 55.249375 620.742637 
L 839.627321 620.742637 
" clip-path="url(#p85b9644278)" style="fill: none; stroke-dasharray: 2.96,1.28; stroke-dashoffset: 0; stroke: #b0b0b0; stroke-opacity: 0.5; stroke-width: 0.8"/>
     </g>
     <g id="line2d_38">
      <g>
       <use xlink:href="#m09baa3b541" x="55.249375" y="620.742637" style="stroke: #000000; stroke-width: 0.6"/>
      </g>
     </g>
    </g>
    <g id="ytick_10">
     <g id="line2d_39">
      <path d="M 55.249375 607.624902 
L 839.627321 607.624902 
" clip-path="url(#p85b9644278)" style="fill: none; stroke-dasharray: 2.96,1.28; stroke-dashoffset: 0; stroke: #b0b0b0; stroke-opacity: 0.5; stroke-width: 0.8"/>
     </g>
     <g id="line2d_40">
      <g>
       <use xlink:href="#m09baa3b541" x="55.249375" y="607.624902" style="stroke: #000000; stroke-width: 0.6"/>
      </g>
     </g>
    </g>
    <g id="ytick_11">
     <g id="line2d_41">
      <path d="M 55.249375 597.449997 
L 839.627321 597.449997 
" clip-path="url(#p85b9644278)" style="fill: none; stroke-dasharray: 2.96,1.28; stroke-dashoffset: 0; stroke: #b0b0b0; stroke-opacity: 0.5; stroke-width: 0.8"/>
     </g>
     <g id="line2d_42">
      <g>
       <use xlink:href="#m09baa3b541" x="55.249375" y="597.449997" style="stroke: #000000; stroke-width: 0.6"/>
      </g>
     </g>
    </g>
    <g id="ytick_12">
     <g id="line2d_43">
      <path d="M 55.249375 589.136494 
L 839.627321 589.136494 
" clip-path="url(#p85b9644278)" style="fill: none; stroke-dasharray: 2.96,1.28; stroke-dashoffset: 0; stroke: #b0b0b0; stroke-opacity: 0.5; stroke-width: 0.8"/>
     </g>
     <g id="line2d_44">
      <g>
       <use xlink:href="#m09baa3b541" x="55.249375" y="589.136494" style="stroke: #000000; stroke-width: 0.6"/>
      </g>
     </g>
    </g>
    <g id="ytick_13">
     <g id="line2d_45">
      <path d="M 55.249375 582.107527 
L 839.627321 582.107527 
" clip-path="url(#p85b9644278)" style="fill: none; stroke-dasharray: 2.96,1.28; stroke-dashoffset: 0; stroke: #b0b0b0; stroke-opacity: 0.5; stroke-width: 0.8"/>
     </g>
     <g id="line2d_46">
      <g>
       <use xlink:href="#m09baa3b541" x="55.249375" y="582.107527" style="stroke: #000000; stroke-width: 0.6"/>
      </g>
     </g>
    </g>
    <g id="ytick_14">
     <g id="line2d_47">
      <path d="M 55.249375 576.018759 
L 839.627321 576.018759 
" clip-path="url(#p85b9644278)" style="fill: none; stroke-dasharray: 2.96,1.28; stroke-dashoffset: 0; stroke: #b0b0b0; stroke-opacity: 0.5; stroke-width: 0.8"/>
     </g>
     <g id="line2d_48">
      <g>
       <use xlink:href="#m09baa3b541" x="55.249375" y="576.018759" style="stroke: #000000; stroke-width: 0.6"/>
      </g>
     </g>
    </g>
    <g id="ytick_15">
     <g id="line2d_49">
      <path d="M 55.249375 570.648086 
L 839.627321 570.648086 
" clip-path="url(#p85b9644278)" style="fill: none; stroke-dasharray: 2.96,1.28; stroke-dashoffset: 0; stroke: #b0b0b0; stroke-opacity: 0.5; stroke-width: 0.8"/>
     </g>
     <g id="line2d_50">
      <g>
       <use xlink:href="#m09baa3b541" x="55.249375" y="570.648086" style="stroke: #000000; stroke-width: 0.6"/>
      </g>
     </g>
    </g>
    <g id="ytick_16">
     <g id="line2d_51">
      <path d="M 55.249375 534.237711 
L 839.627321 534.237711 
" clip-path="url(#p85b9644278)" style="fill: none; stroke-dasharray: 2.96,1.28; stroke-dashoffset: 0; stroke: #b0b0b0; stroke-opacity: 0.5; stroke-width: 0.8"/>
     </g>
     <g id="line2d_52">
      <g>
       <use xlink:href="#m09baa3b541" x="55.249375" y="534.237711" style="stroke: #000000; stroke-width: 0.6"/>
      </g>
     </g>
    </g>
    <g id="ytick_17">
     <g id="line2d_53">
      <path d="M 55.249375 515.749303 
L 839.627321 515.749303 
" clip-path="url(#p85b9644278)" style="fill: none; stroke-dasharray: 2.96,1.28; stroke-dashoffset: 0; stroke: #b0b0b0; stroke-opacity: 0.5; stroke-width: 0.8"/>
     </g>
     <g id="line2d_54">
      <g>
       <use xlink:href="#m09baa3b541" x="55.249375" y="515.749303" style="stroke: #000000; stroke-width: 0.6"/>
      </g>
     </g>
    </g>
    <g id="ytick_18">
     <g id="line2d_55">
      <path d="M 55.249375 502.631569 
L 839.627321 502.631569 
" clip-path="url(#p85b9644278)" style="fill: none; stroke-dasharray: 2.96,1.28; stroke-dashoffset: 0; stroke: #b0b0b0; stroke-opacity: 0.5; stroke-width: 0.8"/>
     </g>
     <g id="line2d_56">
      <g>
       <use xlink:href="#m09baa3b541" x="55.249375" y="502.631569" style="stroke: #000000; stroke-width: 0.6"/>
      </g>
     </g>
    </g>
    <g id="ytick_19">
     <g id="line2d_57">
      <path d="M 55.249375 492.456664 
L 839.627321 492.456664 
" clip-path="url(#p85b9644278)" style="fill: none; stroke-dasharray: 2.96,1.28; stroke-dashoffset: 0; stroke: #b0b0b0; stroke-opacity: 0.5; stroke-width: 0.8"/>
     </g>
     <g id="line2d_58">
      <g>
       <use xlink:href="#m09baa3b541" x="55.249375" y="492.456664" style="stroke: #000000; stroke-width: 0.6"/>
      </g>
     </g>
    </g>
    <g id="ytick_20">
     <g id="line2d_59">
      <path d="M 55.249375 484.143161 
L 839.627321 484.143161 
" clip-path="url(#p85b9644278)" style="fill: none; stroke-dasharray: 2.96,1.28; stroke-dashoffset: 0; stroke: #b0b0b0; stroke-opacity: 0.5; stroke-width: 0.8"/>
     </g>
     <g id="line2d_60">
      <g>
       <use xlink:href="#m09baa3b541" x="55.249375" y="484.143161" style="stroke: #000000; stroke-width: 0.6"/>
      </g>
     </g>
    </g>
    <g id="ytick_21">
     <g id="line2d_61">
      <path d="M 55.249375 477.114194 
L 839.627321 477.114194 
" clip-path="url(#p85b9644278)" style="fill: none; stroke-dasharray: 2.96,1.28; stroke-dashoffset: 0; stroke: #b0b0b0; stroke-opacity: 0.5; stroke-width: 0.8"/>
     </g>
     <g id="line2d_62">
      <g>
       <use xlink:href="#m09baa3b541" x="55.249375" y="477.114194" style="stroke: #000000; stroke-width: 0.6"/>
      </g>
     </g>
    </g>
    <g id="ytick_22">
     <g id="line2d_63">
      <path d="M 55.249375 471.025426 
L 839.627321 471.025426 
" clip-path="url(#p85b9644278)" style="fill: none; stroke-dasharray: 2.96,1.28; stroke-dashoffset: 0; stroke: #b0b0b0; stroke-opacity: 0.5; stroke-width: 0.8"/>
     </g>
     <g id="line2d_64">
      <g>
       <use xlink:href="#m09baa3b541" x="55.249375" y="471.025426" style="stroke: #000000; stroke-width: 0.6"/>
      </g>
     </g>
    </g>
    <g id="ytick_23">
     <g id="line2d_65">
      <path d="M 55.249375 465.654752 
L 839.627321 465.654752 
" clip-path="url(#p85b9644278)" style="fill: none; stroke-dasharray: 2.96,1.28; stroke-dashoffset: 0; stroke: #b0b0b0; stroke-opacity: 0.5; stroke-width: 0.8"/>
     </g>
     <g id="line2d_66">
      <g>
       <use xlink:href="#m09baa3b541" x="55.249375" y="465.654752" style="stroke: #000000; stroke-width: 0.6"/>
      </g>
     </g>
    </g>
    <g id="ytick_24">
     <g id="line2d_67">
      <path d="M 55.249375 429.244378 
L 839.627321 429.244378 
" clip-path="url(#p85b9644278)" style="fill: none; stroke-dasharray: 2.96,1.28; stroke-dashoffset: 0; stroke: #b0b0b0; stroke-opacity: 0.5; stroke-width: 0.8"/>
     </g>
     <g id="line2d_68">
      <g>
       <use xlink:href="#m09baa3b541" x="55.249375" y="429.244378" style="stroke: #000000; stroke-width: 0.6"/>
      </g>
     </g>
    </g>
    <g id="ytick_25">
     <g id="line2d_69">
      <path d="M 55.249375 410.75597 
L 839.627321 410.75597 
" clip-path="url(#p85b9644278)" style="fill: none; stroke-dasharray: 2.96,1.28; stroke-dashoffset: 0; stroke: #b0b0b0; stroke-opacity: 0.5; stroke-width: 0.8"/>
     </g>
     <g id="line2d_70">
      <g>
       <use xlink:href="#m09baa3b541" x="55.249375" y="410.75597" style="stroke: #000000; stroke-width: 0.6"/>
      </g>
     </g>
    </g>
    <g id="ytick_26">
     <g id="line2d_71">
      <path d="M 55.249375 397.638235 
L 839.627321 397.638235 
" clip-path="url(#p85b9644278)" style="fill: none; stroke-dasharray: 2.96,1.28; stroke-dashoffset: 0; stroke: #b0b0b0; stroke-opacity: 0.5; stroke-width: 0.8"/>
     </g>
     <g id="line2d_72">
      <g>
       <use xlink:href="#m09baa3b541" x="55.249375" y="397.638235" style="stroke: #000000; stroke-width: 0.6"/>
      </g>
     </g>
    </g>
    <g id="ytick_27">
     <g id="line2d_73">
      <path d="M 55.249375 387.46333 
L 839.627321 387.46333 
" clip-path="url(#p85b9644278)" style="fill: none; stroke-dasharray: 2.96,1.28; stroke-dashoffset: 0; stroke: #b0b0b0; stroke-opacity: 0.5; stroke-width: 0.8"/>
     </g>
     <g id="line2d_74">
      <g>
       <use xlink:href="#m09baa3b541" x="55.249375" y="387.46333" style="stroke: #000000; stroke-width: 0.6"/>
      </g>
     </g>
    </g>
    <g id="ytick_28">
     <g id="line2d_75">
      <path d="M 55.249375 379.149827 
L 839.627321 379.149827 
" clip-path="url(#p85b9644278)" style="fill: none; stroke-dasharray: 2.96,1.28; stroke-dashoffset: 0; stroke: #b0b0b0; stroke-opacity: 0.5; stroke-width: 0.8"/>
     </g>
     <g id="line2d_76">
      <g>
       <use xlink:href="#m09baa3b541" x="55.249375" y="379.149827" style="stroke: #000000; stroke-width: 0.6"/>
      </g>
     </g>
    </g>
    <g id="ytick_29">
     <g id="line2d_77">
      <path d="M 55.249375 372.120861 
L 839.627321 372.120861 
" clip-path="url(#p85b9644278)" style="fill: none; stroke-dasharray: 2.96,1.28; stroke-dashoffset: 0; stroke: #b0b0b0; stroke-opacity: 0.5; stroke-width: 0.8"/>
     </g>
     <g id="line2d_78">
      <g>
       <use xlink:href="#m09baa3b541" x="55.249375" y="372.120861" style="stroke: #000000; stroke-width: 0.6"/>
      </g>
     </g>
    </g>
    <g id="ytick_30">
     <g id="line2d_79">
      <path d="M 55.249375 366.032093 
L 839.627321 366.032093 
" clip-path="url(#p85b9644278)" style="fill: none; stroke-dasharray: 2.96,1.28; stroke-dashoffset: 0; stroke: #b0b0b0; stroke-opacity: 0.5; stroke-width: 0.8"/>
     </g>
     <g id="line2d_80">
      <g>
       <use xlink:href="#m09baa3b541" x="55.249375" y="366.032093" style="stroke: #000000; stroke-width: 0.6"/>
      </g>
     </g>
    </g>
    <g id="ytick_31">
     <g id="line2d_81">
      <path d="M 55.249375 360.661419 
L 839.627321 360.661419 
" clip-path="url(#p85b9644278)" style="fill: none; stroke-dasharray: 2.96,1.28; stroke-dashoffset: 0; stroke: #b0b0b0; stroke-opacity: 0.5; stroke-width: 0.8"/>
     </g>
     <g id="line2d_82">
      <g>
       <use xlink:href="#m09baa3b541" x="55.249375" y="360.661419" style="stroke: #000000; stroke-width: 0.6"/>
      </g>
     </g>
    </g>
    <g id="ytick_32">
     <g id="line2d_83">
      <path d="M 55.249375 324.251045 
L 839.627321 324.251045 
" clip-path="url(#p85b9644278)" style="fill: none; stroke-dasharray: 2.96,1.28; stroke-dashoffset: 0; stroke: #b0b0b0; stroke-opacity: 0.5; stroke-width: 0.8"/>
     </g>
     <g id="line2d_84">
      <g>
       <use xlink:href="#m09baa3b541" x="55.249375" y="324.251045" style="stroke: #000000; stroke-width: 0.6"/>
      </g>
     </g>
    </g>
    <g id="ytick_33">
     <g id="line2d_85">
      <path d="M 55.249375 305.762637 
L 839.627321 305.762637 
" clip-path="url(#p85b9644278)" style="fill: none; stroke-dasharray: 2.96,1.28; stroke-dashoffset: 0; stroke: #b0b0b0; stroke-opacity: 0.5; stroke-width: 0.8"/>
     </g>
     <g id="line2d_86">
      <g>
       <use xlink:href="#m09baa3b541" x="55.249375" y="305.762637" style="stroke: #000000; stroke-width: 0.6"/>
      </g>
     </g>
    </g>
    <g id="ytick_34">
     <g id="line2d_87">
      <path d="M 55.249375 292.644902 
L 839.627321 292.644902 
" clip-path="url(#p85b9644278)" style="fill: none; stroke-dasharray: 2.96,1.28; stroke-dashoffset: 0; stroke: #b0b0b0; stroke-opacity: 0.5; stroke-width: 0.8"/>
     </g>
     <g id="line2d_88">
      <g>
       <use xlink:href="#m09baa3b541" x="55.249375" y="292.644902" style="stroke: #000000; stroke-width: 0.6"/>
      </g>
     </g>
    </g>
    <g id="ytick_35">
     <g id="line2d_89">
      <path d="M 55.249375 282.469997 
L 839.627321 282.469997 
" clip-path="url(#p85b9644278)" style="fill: none; stroke-dasharray: 2.96,1.28; stroke-dashoffset: 0; stroke: #b0b0b0; stroke-opacity: 0.5; stroke-width: 0.8"/>
     </g>
     <g id="line2d_90">
      <g>
       <use xlink:href="#m09baa3b541" x="55.249375" y="282.469997" style="stroke: #000000; stroke-width: 0.6"/>
      </g>
     </g>
    </g>
    <g id="ytick_36">
     <g id="line2d_91">
      <path d="M 55.249375 274.156494 
L 839.627321 274.156494 
" clip-path="url(#p85b9644278)" style="fill: none; stroke-dasharray: 2.96,1.28; stroke-dashoffset: 0; stroke: #b0b0b0; stroke-opacity: 0.5; stroke-width: 0.8"/>
     </g>
     <g id="line2d_92">
      <g>
       <use xlink:href="#m09baa3b541" x="55.249375" y="274.156494" style="stroke: #000000; stroke-width: 0.6"/>
      </g>
     </g>
    </g>
    <g id="ytick_37">
     <g id="line2d_93">
      <path d="M 55.249375 267.127527 
L 839.627321 267.127527 
" clip-path="url(#p85b9644278)" style="fill: none; stroke-dasharray: 2.96,1.28; stroke-dashoffset: 0; stroke: #b0b0b0; stroke-opacity: 0.5; stroke-width: 0.8"/>
     </g>
     <g id="line2d_94">
      <g>
       <use xlink:href="#m09baa3b541" x="55.249375" y="267.127527" style="stroke: #000000; stroke-width: 0.6"/>
      </g>
     </g>
    </g>
    <g id="ytick_38">
     <g id="line2d_95">
      <path d="M 55.249375 261.038759 
L 839.627321 261.038759 
" clip-path="url(#p85b9644278)" style="fill: none; stroke-dasharray: 2.96,1.28; stroke-dashoffset: 0; stroke: #b0b0b0; stroke-opacity: 0.5; stroke-width: 0.8"/>
     </g>
     <g id="line2d_96">
      <g>
       <use xlink:href="#m09baa3b541" x="55.249375" y="261.038759" style="stroke: #000000; stroke-width: 0.6"/>
      </g>
     </g>
    </g>
    <g id="ytick_39">
     <g id="line2d_97">
      <path d="M 55.249375 255.668086 
L 839.627321 255.668086 
" clip-path="url(#p85b9644278)" style="fill: none; stroke-dasharray: 2.96,1.28; stroke-dashoffset: 0; stroke: #b0b0b0; stroke-opacity: 0.5; stroke-width: 0.8"/>
     </g>
     <g id="line2d_98">
      <g>
       <use xlink:href="#m09baa3b541" x="55.249375" y="255.668086" style="stroke: #000000; stroke-width: 0.6"/>
      </g>
     </g>
    </g>
    <g id="ytick_40">
     <g id="line2d_99">
      <path d="M 55.249375 219.257711 
L 839.627321 219.257711 
" clip-path="url(#p85b9644278)" style="fill: none; stroke-dasharray: 2.96,1.28; stroke-dashoffset: 0; stroke: #b0b0b0; stroke-opacity: 0.5; stroke-width: 0.8"/>
     </g>
     <g id="line2d_100">
      <g>
       <use xlink:href="#m09baa3b541" x="55.249375" y="219.257711" style="stroke: #000000; stroke-width: 0.6"/>
      </g>
     </g>
    </g>
    <g id="ytick_41">
     <g id="line2d_101">
      <path d="M 55.249375 200.769303 
L 839.627321 200.769303 
" clip-path="url(#p85b9644278)" style="fill: none; stroke-dasharray: 2.96,1.28; stroke-dashoffset: 0; stroke: #b0b0b0; stroke-opacity: 0.5; stroke-width: 0.8"/>
     </g>
     <g id="line2d_102">
      <g>
       <use xlink:href="#m09baa3b541" x="55.249375" y="200.769303" style="stroke: #000000; stroke-width: 0.6"/>
      </g>
     </g>
    </g>
    <g id="ytick_42">
     <g id="line2d_103">
      <path d="M 55.249375 187.651569 
L 839.627321 187.651569 
" clip-path="url(#p85b9644278)" style="fill: none; stroke-dasharray: 2.96,1.28; stroke-dashoffset: 0; stroke: #b0b0b0; stroke-opacity: 0.5; stroke-width: 0.8"/>
     </g>
     <g id="line2d_104">
      <g>
       <use xlink:href="#m09baa3b541" x="55.249375" y="187.651569" style="stroke: #000000; stroke-width: 0.6"/>
      </g>
     </g>
    </g>
    <g id="ytick_43">
     <g id="line2d_105">
      <path d="M 55.249375 177.476664 
L 839.627321 177.476664 
" clip-path="url(#p85b9644278)" style="fill: none; stroke-dasharray: 2.96,1.28; stroke-dashoffset: 0; stroke: #b0b0b0; stroke-opacity: 0.5; stroke-width: 0.8"/>
     </g>
     <g id="line2d_106">
      <g>
       <use xlink:href="#m09baa3b541" x="55.249375" y="177.476664" style="stroke: #000000; stroke-width: 0.6"/>
      </g>
     </g>
    </g>
    <g id="ytick_44">
     <g id="line2d_107">
      <path d="M 55.249375 169.163161 
L 839.627321 169.163161 
" clip-path="url(#p85b9644278)" style="fill: none; stroke-dasharray: 2.96,1.28; stroke-dashoffset: 0; stroke: #b0b0b0; stroke-opacity: 0.5; stroke-width: 0.8"/>
     </g>
     <g id="line2d_108">
      <g>
       <use xlink:href="#m09baa3b541" x="55.249375" y="169.163161" style="stroke: #000000; stroke-width: 0.6"/>
      </g>
     </g>
    </g>
    <g id="ytick_45">
     <g id="line2d_109">
      <path d="M 55.249375 162.134194 
L 839.627321 162.134194 
" clip-path="url(#p85b9644278)" style="fill: none; stroke-dasharray: 2.96,1.28; stroke-dashoffset: 0; stroke: #b0b0b0; stroke-opacity: 0.5; stroke-width: 0.8"/>
     </g>
     <g id="line2d_110">
      <g>
       <use xlink:href="#m09baa3b541" x="55.249375" y="162.134194" style="stroke: #000000; stroke-width: 0.6"/>
      </g>
     </g>
    </g>
    <g id="ytick_46">
     <g id="line2d_111">
      <path d="M 55.249375 156.045426 
L 839.627321 156.045426 
" clip-path="url(#p85b9644278)" style="fill: none; stroke-dasharray: 2.96,1.28; stroke-dashoffset: 0; stroke: #b0b0b0; stroke-opacity: 0.5; stroke-width: 0.8"/>
     </g>
     <g id="line2d_112">
      <g>
       <use xlink:href="#m09baa3b541" x="55.249375" y="156.045426" style="stroke: #000000; stroke-width: 0.6"/>
      </g>
     </g>
    </g>
    <g id="ytick_47">
     <g id="line2d_113">
      <path d="M 55.249375 150.674752 
L 839.627321 150.674752 
" clip-path="url(#p85b9644278)" style="fill: none; stroke-dasharray: 2.96,1.28; stroke-dashoffset: 0; stroke: #b0b0b0; stroke-opacity: 0.5; stroke-width: 0.8"/>
     </g>
     <g id="line2d_114">
      <g>
       <use xlink:href="#m09baa3b541" x="55.249375" y="150.674752" style="stroke: #000000; stroke-width: 0.6"/>
      </g>
     </g>
    </g>
    <g id="ytick_48">
     <g id="line2d_115">
      <path d="M 55.249375 114.264378 
L 839.627321 114.264378 
" clip-path="url(#p85b9644278)" style="fill: none; stroke-dasharray: 2.96,1.28; stroke-dashoffset: 0; stroke: #b0b0b0; stroke-opacity: 0.5; stroke-width: 0.8"/>
     </g>
     <g id="line2d_116">
      <g>
       <use xlink:href="#m09baa3b541" x="55.249375" y="114.264378" style="stroke: #000000; stroke-width: 0.6"/>
      </g>
     </g>
    </g>
    <g id="ytick_49">
     <g id="line2d_117">
      <path d="M 55.249375 95.77597 
L 839.627321 95.77597 
" clip-path="url(#p85b9644278)" style="fill: none; stroke-dasharray: 2.96,1.28; stroke-dashoffset: 0; stroke: #b0b0b0; stroke-opacity: 0.5; stroke-width: 0.8"/>
     </g>
     <g id="line2d_118">
      <g>
       <use xlink:href="#m09baa3b541" x="55.249375" y="95.77597" style="stroke: #000000; stroke-width: 0.6"/>
      </g>
     </g>
    </g>
    <g id="ytick_50">
     <g id="line2d_119">
      <path d="M 55.249375 82.658235 
L 839.627321 82.658235 
" clip-path="url(#p85b9644278)" style="fill: none; stroke-dasharray: 2.96,1.28; stroke-dashoffset: 0; stroke: #b0b0b0; stroke-opacity: 0.5; stroke-width: 0.8"/>
     </g>
     <g id="line2d_120">
      <g>
       <use xlink:href="#m09baa3b541" x="55.249375" y="82.658235" style="stroke: #000000; stroke-width: 0.6"/>
      </g>
     </g>
    </g>
    <g id="ytick_51">
     <g id="line2d_121">
      <path d="M 55.249375 72.48333 
L 839.627321 72.48333 
" clip-path="url(#p85b9644278)" style="fill: none; stroke-dasharray: 2.96,1.28; stroke-dashoffset: 0; stroke: #b0b0b0; stroke-opacity: 0.5; stroke-width: 0.8"/>
     </g>
     <g id="line2d_122">
      <g>
       <use xlink:href="#m09baa3b541" x="55.249375" y="72.48333" style="stroke: #000000; stroke-width: 0.6"/>
      </g>
     </g>
    </g>
    <g id="ytick_52">
     <g id="line2d_123">
      <path d="M 55.249375 64.169827 
L 839.627321 64.169827 
" clip-path="url(#p85b9644278)" style="fill: none; stroke-dasharray: 2.96,1.28; stroke-dashoffset: 0; stroke: #b0b0b0; stroke-opacity: 0.5; stroke-width: 0.8"/>
     </g>
     <g id="line2d_124">
      <g>
       <use xlink:href="#m09baa3b541" x="55.249375" y="64.169827" style="stroke: #000000; stroke-width: 0.6"/>
      </g>
     </g>
    </g>
    <g id="ytick_53">
     <g id="line2d_125">
      <path d="M 55.249375 57.140861 
L 839.627321 57.140861 
" clip-path="url(#p85b9644278)" style="fill: none; stroke-dasharray: 2.96,1.28; stroke-dashoffset: 0; stroke: #b0b0b0; stroke-opacity: 0.5; stroke-width: 0.8"/>
     </g>
     <g id="line2d_126">
      <g>
       <use xlink:href="#m09baa3b541" x="55.249375" y="57.140861" style="stroke: #000000; stroke-width: 0.6"/>
      </g>
     </g>
    </g>
    <g id="ytick_54">
     <g id="line2d_127">
      <path d="M 55.249375 51.052093 
L 839.627321 51.052093 
" clip-path="url(#p85b9644278)" style="fill: none; stroke-dasharray: 2.96,1.28; stroke-dashoffset: 0; stroke: #b0b0b0; stroke-opacity: 0.5; stroke-width: 0.8"/>
     </g>
     <g id="line2d_128">
      <g>
       <use xlink:href="#m09baa3b541" x="55.249375" y="51.052093" style="stroke: #000000; stroke-width: 0.6"/>
      </g>
     </g>
    </g>
    <g id="ytick_55">
     <g id="line2d_129">
      <path d="M 55.249375 45.681419 
L 839.627321 45.681419 
" clip-path="url(#p85b9644278)" style="fill: none; stroke-dasharray: 2.96,1.28; stroke-dashoffset: 0; stroke: #b0b0b0; stroke-opacity: 0.5; stroke-width: 0.8"/>
     </g>
     <g id="line2d_130">
      <g>
       <use xlink:href="#m09baa3b541" x="55.249375" y="45.681419" style="stroke: #000000; stroke-width: 0.6"/>
      </g>
     </g>
    </g>
    <g id="text_19">
     <!-- Pressure (MPa) -->
     <g transform="translate(17.837813 416.175312) rotate(-90) scale(0.14 -0.14)">
      <defs>
       <path id="DejaVuSans-Bold-50" d="M 588 4666 
L 2584 4666 
Q 3475 4666 3951 4270 
Q 4428 3875 4428 3144 
Q 4428 2409 3951 2014 
Q 3475 1619 2584 1619 
L 1791 1619 
L 1791 0 
L 588 0 
L 588 4666 
z
M 1791 3794 
L 1791 2491 
L 2456 2491 
Q 2806 2491 2997 2661 
Q 3188 2831 3188 3144 
Q 3188 3456 2997 3625 
Q 2806 3794 2456 3794 
L 1791 3794 
z
" transform="scale(0.015625)"/>
       <path id="DejaVuSans-Bold-73" d="M 3272 3391 
L 3272 2541 
Q 2913 2691 2578 2766 
Q 2244 2841 1947 2841 
Q 1628 2841 1473 2761 
Q 1319 2681 1319 2516 
Q 1319 2381 1436 2309 
Q 1553 2238 1856 2203 
L 2053 2175 
Q 2913 2066 3209 1816 
Q 3506 1566 3506 1031 
Q 3506 472 3093 190 
Q 2681 -91 1863 -91 
Q 1516 -91 1145 -36 
Q 775 19 384 128 
L 384 978 
Q 719 816 1070 734 
Q 1422 653 1784 653 
Q 2113 653 2278 743 
Q 2444 834 2444 1013 
Q 2444 1163 2330 1236 
Q 2216 1309 1875 1350 
L 1678 1375 
Q 931 1469 631 1722 
Q 331 1975 331 2491 
Q 331 3047 712 3315 
Q 1094 3584 1881 3584 
Q 2191 3584 2531 3537 
Q 2872 3491 3272 3391 
z
" transform="scale(0.015625)"/>
       <path id="DejaVuSans-Bold-4d" d="M 588 4666 
L 2119 4666 
L 3181 2169 
L 4250 4666 
L 5778 4666 
L 5778 0 
L 4641 0 
L 4641 3413 
L 3566 897 
L 2803 897 
L 1728 3413 
L 1728 0 
L 588 0 
L 588 4666 
z
" transform="scale(0.015625)"/>
      </defs>
      <use xlink:href="#DejaVuSans-Bold-50"/>
      <use xlink:href="#DejaVuSans-Bold-72" transform="translate(73.291016 0)"/>
      <use xlink:href="#DejaVuSans-Bold-65" transform="translate(122.607422 0)"/>
      <use xlink:href="#DejaVuSans-Bold-73" transform="translate(190.429688 0)"/>
      <use xlink:href="#DejaVuSans-Bold-73" transform="translate(249.951172 0)"/>
      <use xlink:href="#DejaVuSans-Bold-75" transform="translate(309.472656 0)"/>
      <use xlink:href="#DejaVuSans-Bold-72" transform="translate(380.664062 0)"/>
      <use xlink:href="#DejaVuSans-Bold-65" transform="translate(429.980469 0)"/>
      <use xlink:href="#DejaVuSans-Bold-20" transform="translate(497.802734 0)"/>
      <use xlink:href="#DejaVuSans-Bold-28" transform="translate(532.617188 0)"/>
      <use xlink:href="#DejaVuSans-Bold-4d" transform="translate(578.320312 0)"/>
      <use xlink:href="#DejaVuSans-Bold-50" transform="translate(677.832031 0)"/>
      <use xlink:href="#DejaVuSans-Bold-61" transform="translate(748.498047 0)"/>
      <use xlink:href="#DejaVuSans-Bold-29" transform="translate(815.978516 0)"/>
     </g>
    </g>
   </g>
   <g id="line2d_131">
    <path d="M 405.892463 322.822766 
L 408.974967 325.53371 
L 411.864815 328.385411 
L 414.562007 331.369365 
L 417.066542 334.472684 
L 419.37842 337.67696 
L 421.690299 341.273562 
L 423.809521 344.987889 
L 425.736086 348.787006 
L 427.662652 353.080519 
L 429.39656 357.468089 
L 431.130469 362.47989 
L 432.671722 367.601103 
L 434.212974 373.536865 
L 435.56157 379.61022 
L 436.910165 386.795863 
L 438.066105 394.177369 
L 439.222044 403.182629 
L 440.185326 412.524818 
L 440.955953 421.830046 
L 441.726579 433.709638 
L 442.304548 445.377449 
L 442.882518 461.281684 
L 443.267831 476.292707 
L 443.653144 499.011231 
L 443.845801 516.898095 
L 444.038457 546.882772 
L 444.231114 670.236981 
L 444.231114 670.236981 
" clip-path="url(#p85b9644278)" style="fill: none; stroke: #000000; stroke-opacity: 0.8; stroke-width: 3; stroke-linecap: square"/>
   </g>
   <g id="line2d_132">
    <path d="M 383.903734 309.45296 
L 387.992091 311.14336 
L 391.748959 312.931636 
L 395.284835 314.858705 
L 398.599719 316.920047 
L 401.69361 319.107623 
L 404.566509 321.409122 
L 405.892463 322.5724 
L 405.892463 322.5724 
" clip-path="url(#p85b9644278)" style="fill: none; stroke: #333333; stroke-opacity: 0.8; stroke-width: 3; stroke-linecap: square"/>
   </g>
   <g id="line2d_133">
    <path d="M 409.090982 298.11175 
L 414.607773 299.218272 
L 414.607773 299.218272 
" clip-path="url(#p85b9644278)" style="fill: none; stroke: #555555; stroke-opacity: 0.8; stroke-width: 3; stroke-linecap: square"/>
   </g>
   <g id="line2d_134">
    <path d="M 444.492573 272.276806 
L 453.052672 270.530139 
L 461.612771 268.564496 
L 470.172871 266.369338 
L 478.73297 263.93687 
L 487.293069 261.262455 
L 495.853168 258.344899 
L 504.413267 255.186555 
L 512.973366 251.793256 
L 522.246807 247.862638 
L 531.520248 243.682259 
L 541.50703 238.922225 
L 551.493813 233.920009 
L 562.907278 227.94249 
L 575.034085 221.332486 
L 586.447551 214.911755 
L 586.447551 214.911755 
" clip-path="url(#p85b9644278)" style="fill: none; stroke: #777777; stroke-opacity: 0.8; stroke-width: 3; stroke-linecap: square"/>
   </g>
   <g id="line2d_135">
    <path d="M 586.447551 214.911755 
L 606.803713 207.5272 
L 627.159876 200.374344 
L 648.788298 193.012561 
L 670.416721 185.881073 
L 693.317404 178.56559 
L 716.218086 171.47756 
L 740.391029 164.227367 
L 765.836232 156.836749 
L 791.281435 149.678205 
L 817.998898 142.396058 
L 839.627321 136.666734 
L 839.627321 136.666734 
" clip-path="url(#p85b9644278)" style="fill: none; stroke: #999999; stroke-opacity: 0.8; stroke-width: 3; stroke-linecap: square"/>
   </g>
   <g id="line2d_136">
    <path d="M 575.869818 713.264687 
L 581.40939 707.256727 
L 589.4787 698.765366 
L 597.54801 690.523289 
L 605.617321 682.520098 
L 613.686631 674.745908 
L 621.755942 667.191327 
L 629.825252 659.847418 
L 637.894562 652.70568 
L 645.963873 645.758021 
L 654.033183 638.996734 
L 662.102493 632.414478 
L 670.171804 626.004259 
L 678.241114 619.759409 
L 686.310424 613.673571 
L 694.379735 607.74068 
L 702.449045 601.954952 
L 710.518355 596.310863 
L 718.587666 590.803143 
L 726.656976 585.426755 
L 734.726286 580.17689 
L 742.795597 575.04895 
L 750.864907 570.038539 
L 758.934218 565.141455 
L 767.003528 560.353674 
L 775.072838 555.671348 
L 783.142149 551.09079 
L 791.211459 546.608469 
L 799.280769 542.220999 
L 807.35008 537.925135 
L 815.41939 533.717763 
L 823.4887 529.595895 
L 831.558011 525.556659 
L 839.627321 521.597294 
" clip-path="url(#p85b9644278)" style="fill: none; stroke: #0000ff; stroke-opacity: 0.8; stroke-width: 3; stroke-linecap: square"/>
   </g>
   <g id="patch_14">
    <path d="M 55.249375 670.837187 
L 55.249375 40.877187 
" style="fill: none; stroke: #000000; stroke-width: 0.8; stroke-linejoin: miter; stroke-linecap: square"/>
   </g>
   <g id="patch_15">
    <path d="M 839.627321 670.837187 
L 839.627321 40.877187 
" style="fill: none; stroke: #000000; stroke-width: 0.8; stroke-linejoin: miter; stroke-linecap: square"/>
   </g>
   <g id="patch_16">
    <path d="M 55.249375 670.837187 
L 839.627321 670.837187 
" style="fill: none; stroke: #000000; stroke-width: 0.8; stroke-linejoin: miter; stroke-linecap: square"/>
   </g>
   <g id="patch_17">
    <path d="M 55.249375 40.877187 
L 839.627321 40.877187 
" style="fill: none; stroke: #000000; stroke-width: 0.8; stroke-linejoin: miter; stroke-linecap: square"/>
   </g>
   <g id="text_20">
    <!-- Data: IAPWS R14-08(2011) + Literature values for XI, IX, X, XV -->
    <g style="fill: #808080" transform="translate(70.936934 656.574237) scale(0.08 -0.08)">
     <defs>
      <path id="DejaVuSans-Oblique-44" d="M 1081 4666 
L 2438 4666 
Q 3519 4666 4070 4208 
Q 4622 3750 4622 2847 
Q 4622 2250 4412 1698 
Q 4203 1147 3834 769 
Q 3463 381 2891 190 
Q 2319 0 1538 0 
L 172 0 
L 1081 4666 
z
M 1613 4147 
L 909 519 
L 1734 519 
Q 2794 519 3375 1128 
Q 3956 1738 3956 2847 
Q 3956 3519 3581 3833 
Q 3206 4147 2406 4147 
L 1613 4147 
z
" transform="scale(0.015625)"/>
      <path id="DejaVuSans-Oblique-61" d="M 3438 1997 
L 3047 0 
L 2472 0 
L 2578 531 
Q 2325 219 2001 64 
Q 1678 -91 1281 -91 
Q 834 -91 548 182 
Q 263 456 263 884 
Q 263 1497 752 1853 
Q 1241 2209 2100 2209 
L 2900 2209 
L 2931 2363 
Q 2938 2388 2941 2417 
Q 2944 2447 2944 2509 
Q 2944 2788 2717 2942 
Q 2491 3097 2081 3097 
Q 1800 3097 1504 3025 
Q 1209 2953 897 2809 
L 997 3341 
Q 1322 3463 1633 3523 
Q 1944 3584 2234 3584 
Q 2853 3584 3176 3315 
Q 3500 3047 3500 2534 
Q 3500 2431 3484 2292 
Q 3469 2153 3438 1997 
z
M 2816 1759 
L 2241 1759 
Q 1534 1759 1195 1570 
Q 856 1381 856 984 
Q 856 709 1029 553 
Q 1203 397 1509 397 
Q 1978 397 2328 733 
Q 2678 1069 2791 1631 
L 2816 1759 
z
" transform="scale(0.015625)"/>
      <path id="DejaVuSans-Oblique-74" d="M 2706 3500 
L 2619 3053 
L 1472 3053 
L 1100 1153 
Q 1081 1047 1072 975 
Q 1063 903 1063 863 
Q 1063 663 1183 572 
Q 1303 481 1569 481 
L 2150 481 
L 2053 0 
L 1503 0 
Q 991 0 739 200 
Q 488 400 488 806 
Q 488 878 497 964 
Q 506 1050 525 1153 
L 897 3053 
L 409 3053 
L 500 3500 
L 978 3500 
L 1172 4494 
L 1747 4494 
L 1556 3500 
L 2706 3500 
z
" transform="scale(0.015625)"/>
      <path id="DejaVuSans-Oblique-3a" d="M 978 3309 
L 1638 3309 
L 1484 2516 
L 825 2516 
L 978 3309 
z
M 488 794 
L 1147 794 
L 991 0 
L 331 0 
L 488 794 
z
" transform="scale(0.015625)"/>
      <path id="DejaVuSans-Oblique-20" transform="scale(0.015625)"/>
      <path id="DejaVuSans-Oblique-49" d="M 1081 4666 
L 1716 4666 
L 806 0 
L 172 0 
L 1081 4666 
z
" transform="scale(0.015625)"/>
      <path id="DejaVuSans-Oblique-41" d="M 2356 4666 
L 3072 4666 
L 3938 0 
L 3278 0 
L 3084 1197 
L 984 1197 
L 325 0 
L -341 0 
L 2356 4666 
z
M 2584 4044 
L 1275 1722 
L 2988 1722 
L 2584 4044 
z
" transform="scale(0.015625)"/>
      <path id="DejaVuSans-Oblique-50" d="M 1081 4666 
L 2541 4666 
Q 3178 4666 3512 4369 
Q 3847 4072 3847 3500 
Q 3847 2731 3353 2303 
Q 2859 1875 1966 1875 
L 1172 1875 
L 806 0 
L 172 0 
L 1081 4666 
z
M 1613 4147 
L 1275 2394 
L 2069 2394 
Q 2606 2394 2893 2669 
Q 3181 2944 3181 3456 
Q 3181 3784 2986 3965 
Q 2791 4147 2438 4147 
L 1613 4147 
z
" transform="scale(0.015625)"/>
      <path id="DejaVuSans-Oblique-57" d="M 616 4666 
L 1228 4666 
L 1453 697 
L 3213 4666 
L 3916 4666 
L 4147 697 
L 5888 4666 
L 6528 4666 
L 4453 0 
L 3659 0 
L 3444 3891 
L 1697 0 
L 903 0 
L 616 4666 
z
" transform="scale(0.015625)"/>
      <path id="DejaVuSans-Oblique-53" d="M 3859 4513 
L 3738 3897 
Q 3422 4066 3111 4152 
Q 2800 4238 2509 4238 
Q 1944 4238 1609 3991 
Q 1275 3744 1275 3334 
Q 1275 3109 1398 2989 
Q 1522 2869 2034 2731 
L 2413 2638 
Q 3053 2472 3303 2217 
Q 3553 1963 3553 1503 
Q 3553 797 2998 353 
Q 2444 -91 1538 -91 
Q 1166 -91 791 -17 
Q 416 56 38 206 
L 166 856 
Q 513 641 861 531 
Q 1209 422 1556 422 
Q 2147 422 2503 684 
Q 2859 947 2859 1369 
Q 2859 1650 2717 1795 
Q 2575 1941 2106 2059 
L 1728 2156 
Q 1081 2325 845 2545 
Q 609 2766 609 3163 
Q 609 3859 1145 4304 
Q 1681 4750 2541 4750 
Q 2875 4750 3203 4690 
Q 3531 4631 3859 4513 
z
" transform="scale(0.015625)"/>
      <path id="DejaVuSans-Oblique-52" d="M 1613 4147 
L 1294 2491 
L 2106 2491 
Q 2584 2491 2879 2755 
Q 3175 3019 3175 3444 
Q 3175 3784 2976 3965 
Q 2778 4147 2406 4147 
L 1613 4147 
z
M 2772 2241 
Q 2972 2194 3105 2009 
Q 3238 1825 3413 1275 
L 3809 0 
L 3144 0 
L 2778 1197 
Q 2638 1659 2453 1815 
Q 2269 1972 1888 1972 
L 1191 1972 
L 806 0 
L 172 0 
L 1081 4666 
L 2503 4666 
Q 3150 4666 3495 4373 
Q 3841 4081 3841 3531 
Q 3841 3044 3547 2687 
Q 3253 2331 2772 2241 
z
" transform="scale(0.015625)"/>
      <path id="DejaVuSans-Oblique-31" d="M 416 531 
L 1447 531 
L 2144 4122 
L 978 3897 
L 1088 4441 
L 2247 4666 
L 2881 4666 
L 2075 531 
L 3103 531 
L 3003 0 
L 313 0 
L 416 531 
z
" transform="scale(0.015625)"/>
      <path id="DejaVuSans-Oblique-34" d="M 2753 4666 
L 3547 4666 
L 2950 1625 
L 3616 1625 
L 3513 1100 
L 2847 1100 
L 2638 0 
L 2009 0 
L 2222 1100 
L 116 1100 
L 238 1709 
L 2753 4666 
z
M 2809 4116 
L 728 1625 
L 2322 1625 
L 2809 4116 
z
" transform="scale(0.015625)"/>
      <path id="DejaVuSans-Oblique-2d" d="M 391 2009 
L 2075 2009 
L 1978 1497 
L 288 1497 
L 391 2009 
z
" transform="scale(0.015625)"/>
      <path id="DejaVuSans-Oblique-30" d="M 2444 4750 
Q 3078 4750 3414 4328 
Q 3750 3906 3750 3116 
Q 3750 2516 3592 1923 
Q 3434 1331 3150 863 
Q 2859 394 2467 151 
Q 2075 -91 1600 -91 
Q 988 -91 653 334 
Q 319 759 319 1544 
Q 319 2138 480 2733 
Q 641 3328 928 3794 
Q 1216 4263 1602 4506 
Q 1988 4750 2444 4750 
z
M 2406 4250 
Q 2169 4250 1955 4123 
Q 1741 3997 1569 3750 
Q 1281 3338 1111 2720 
Q 941 2103 941 1453 
Q 941 938 1123 673 
Q 1306 409 1663 409 
Q 1913 409 2125 536 
Q 2338 663 2509 909 
Q 2794 1319 2961 1936 
Q 3128 2553 3128 3206 
Q 3128 3722 2945 3986 
Q 2763 4250 2406 4250 
z
" transform="scale(0.015625)"/>
      <path id="DejaVuSans-Oblique-38" d="M 2847 1416 
Q 2847 1769 2600 1992 
Q 2353 2216 1953 2216 
Q 1466 2216 1148 1923 
Q 831 1631 831 1184 
Q 831 828 1073 618 
Q 1316 409 1728 409 
Q 2219 409 2533 693 
Q 2847 978 2847 1416 
z
M 3169 3591 
Q 3169 3888 2950 4069 
Q 2731 4250 2369 4250 
Q 1941 4250 1664 4009 
Q 1388 3769 1388 3406 
Q 1388 3094 1605 2903 
Q 1822 2713 2181 2713 
Q 2613 2713 2891 2961 
Q 3169 3209 3169 3591 
z
M 2741 2456 
Q 3094 2322 3281 2050 
Q 3469 1778 3469 1394 
Q 3469 747 2969 328 
Q 2469 -91 1678 -91 
Q 1006 -91 609 239 
Q 213 569 213 1119 
Q 213 1619 553 2008 
Q 894 2397 1441 2503 
Q 1113 2616 941 2852 
Q 769 3088 769 3425 
Q 769 3991 1239 4370 
Q 1709 4750 2431 4750 
Q 3034 4750 3414 4442 
Q 3794 4134 3794 3659 
Q 3794 3247 3511 2923 
Q 3228 2600 2741 2456 
z
" transform="scale(0.015625)"/>
      <path id="DejaVuSans-Oblique-28" d="M 2731 4856 
Q 1903 3822 1495 2892 
Q 1088 1963 1088 1100 
Q 1088 606 1206 120 
Q 1325 -366 1563 -844 
L 1063 -844 
Q 775 -306 634 201 
Q 494 709 494 1197 
Q 494 2125 923 3036 
Q 1353 3947 2222 4856 
L 2731 4856 
z
" transform="scale(0.015625)"/>
      <path id="DejaVuSans-Oblique-32" d="M 2950 2253 
L 934 525 
L 3163 525 
L 3053 0 
L 25 0 
L 128 531 
L 2234 2338 
Q 2656 2703 2832 2979 
Q 3009 3256 3009 3547 
Q 3009 3850 2796 4040 
Q 2584 4231 2241 4231 
Q 1944 4231 1581 4125 
Q 1219 4019 806 3816 
L 922 4441 
Q 1309 4594 1662 4672 
Q 2016 4750 2316 4750 
Q 2928 4750 3301 4425 
Q 3675 4100 3675 3572 
Q 3675 3216 3497 2892 
Q 3319 2569 2950 2253 
z
" transform="scale(0.015625)"/>
      <path id="DejaVuSans-Oblique-29" d="M -397 -844 
Q 434 191 840 1120 
Q 1247 2050 1247 2913 
Q 1247 3406 1130 3892 
Q 1013 4378 775 4856 
L 1275 4856 
Q 1563 4316 1703 3812 
Q 1844 3309 1844 2822 
Q 1844 1891 1411 973 
Q 978 56 116 -844 
L -397 -844 
z
" transform="scale(0.015625)"/>
      <path id="DejaVuSans-Oblique-2b" d="M 2944 4013 
L 2944 2272 
L 4684 2272 
L 4684 1741 
L 2944 1741 
L 2944 0 
L 2419 0 
L 2419 1741 
L 678 1741 
L 678 2272 
L 2419 2272 
L 2419 4013 
L 2944 4013 
z
" transform="scale(0.015625)"/>
      <path id="DejaVuSans-Oblique-4c" d="M 1075 4666 
L 1709 4666 
L 909 525 
L 3181 525 
L 3078 0 
L 172 0 
L 1075 4666 
z
" transform="scale(0.015625)"/>
      <path id="DejaVuSans-Oblique-69" d="M 1172 4863 
L 1747 4863 
L 1606 4134 
L 1031 4134 
L 1172 4863 
z
M 909 3500 
L 1484 3500 
L 800 0 
L 225 0 
L 909 3500 
z
" transform="scale(0.015625)"/>
      <path id="DejaVuSans-Oblique-65" d="M 3078 2063 
Q 3088 2113 3092 2166 
Q 3097 2219 3097 2272 
Q 3097 2653 2873 2875 
Q 2650 3097 2266 3097 
Q 1838 3097 1509 2826 
Q 1181 2556 1013 2059 
L 3078 2063 
z
M 3578 1613 
L 903 1613 
Q 884 1494 878 1425 
Q 872 1356 872 1306 
Q 872 872 1139 634 
Q 1406 397 1894 397 
Q 2269 397 2603 481 
Q 2938 566 3225 728 
L 3116 159 
Q 2806 34 2476 -28 
Q 2147 -91 1806 -91 
Q 1078 -91 686 257 
Q 294 606 294 1247 
Q 294 1794 489 2264 
Q 684 2734 1063 3103 
Q 1306 3334 1642 3459 
Q 1978 3584 2356 3584 
Q 2950 3584 3301 3228 
Q 3653 2872 3653 2272 
Q 3653 2128 3634 1964 
Q 3616 1800 3578 1613 
z
" transform="scale(0.015625)"/>
      <path id="DejaVuSans-Oblique-72" d="M 2853 2969 
Q 2766 3016 2653 3041 
Q 2541 3066 2413 3066 
Q 1953 3066 1609 2717 
Q 1266 2369 1153 1784 
L 800 0 
L 225 0 
L 909 3500 
L 1484 3500 
L 1375 2956 
Q 1603 3259 1920 3421 
Q 2238 3584 2597 3584 
Q 2691 3584 2781 3573 
Q 2872 3563 2963 3538 
L 2853 2969 
z
" transform="scale(0.015625)"/>
      <path id="DejaVuSans-Oblique-75" d="M 428 1388 
L 838 3500 
L 1416 3500 
L 1006 1409 
Q 975 1256 961 1147 
Q 947 1038 947 966 
Q 947 700 1109 554 
Q 1272 409 1569 409 
Q 2031 409 2368 721 
Q 2706 1034 2809 1563 
L 3194 3500 
L 3769 3500 
L 3091 0 
L 2516 0 
L 2631 550 
Q 2388 244 2052 76 
Q 1716 -91 1338 -91 
Q 878 -91 622 161 
Q 366 413 366 863 
Q 366 956 381 1097 
Q 397 1238 428 1388 
z
" transform="scale(0.015625)"/>
      <path id="DejaVuSans-Oblique-76" d="M 459 3500 
L 1069 3500 
L 1581 525 
L 3256 3500 
L 3866 3500 
L 1875 0 
L 1100 0 
L 459 3500 
z
" transform="scale(0.015625)"/>
      <path id="DejaVuSans-Oblique-6c" d="M 1172 4863 
L 1747 4863 
L 800 0 
L 225 0 
L 1172 4863 
z
" transform="scale(0.015625)"/>
      <path id="DejaVuSans-Oblique-73" d="M 3200 3397 
L 3091 2853 
Q 2863 2978 2609 3040 
Q 2356 3103 2088 3103 
Q 1634 3103 1373 2948 
Q 1113 2794 1113 2528 
Q 1113 2219 1719 2053 
Q 1766 2041 1788 2034 
L 1972 1978 
Q 2547 1819 2739 1644 
Q 2931 1469 2931 1166 
Q 2931 609 2489 259 
Q 2047 -91 1331 -91 
Q 1053 -91 747 -37 
Q 441 16 72 128 
L 184 722 
Q 500 559 806 475 
Q 1113 391 1394 391 
Q 1816 391 2080 572 
Q 2344 753 2344 1031 
Q 2344 1331 1650 1516 
L 1591 1531 
L 1394 1581 
Q 956 1697 753 1886 
Q 550 2075 550 2369 
Q 550 2928 970 3256 
Q 1391 3584 2113 3584 
Q 2397 3584 2667 3537 
Q 2938 3491 3200 3397 
z
" transform="scale(0.015625)"/>
      <path id="DejaVuSans-Oblique-66" d="M 3059 4863 
L 2969 4384 
L 2419 4384 
Q 2106 4384 1964 4261 
Q 1822 4138 1753 3809 
L 1691 3500 
L 2638 3500 
L 2553 3053 
L 1606 3053 
L 1013 0 
L 434 0 
L 1031 3053 
L 481 3053 
L 563 3500 
L 1113 3500 
L 1159 3744 
Q 1278 4363 1576 4613 
Q 1875 4863 2516 4863 
L 3059 4863 
z
" transform="scale(0.015625)"/>
      <path id="DejaVuSans-Oblique-6f" d="M 1625 -91 
Q 1009 -91 651 289 
Q 294 669 294 1325 
Q 294 1706 417 2101 
Q 541 2497 738 2766 
Q 1047 3184 1428 3384 
Q 1809 3584 2291 3584 
Q 2888 3584 3255 3212 
Q 3622 2841 3622 2241 
Q 3622 1825 3500 1412 
Q 3378 1000 3181 728 
Q 2875 309 2494 109 
Q 2113 -91 1625 -91 
z
M 891 1344 
Q 891 869 1089 633 
Q 1288 397 1691 397 
Q 2269 397 2648 901 
Q 3028 1406 3028 2181 
Q 3028 2634 2825 2865 
Q 2622 3097 2228 3097 
Q 1903 3097 1650 2945 
Q 1397 2794 1197 2484 
Q 1050 2253 970 1956 
Q 891 1659 891 1344 
z
" transform="scale(0.015625)"/>
      <path id="DejaVuSans-Oblique-58" d="M 878 4666 
L 1516 4666 
L 2316 2981 
L 3763 4666 
L 4500 4666 
L 2578 2438 
L 3738 0 
L 3103 0 
L 2163 1966 
L 459 0 
L -275 0 
L 1906 2509 
L 878 4666 
z
" transform="scale(0.015625)"/>
      <path id="DejaVuSans-Oblique-2c" d="M 575 794 
L 1234 794 
L 1131 256 
L 422 -744 
L 19 -744 
L 469 256 
L 575 794 
z
" transform="scale(0.015625)"/>
      <path id="DejaVuSans-Oblique-56" d="M 1319 0 
L 500 4666 
L 1119 4666 
L 1797 653 
L 4063 4666 
L 4750 4666 
L 2053 0 
L 1319 0 
z
" transform="scale(0.015625)"/>
     </defs>
     <use xlink:href="#DejaVuSans-Oblique-44"/>
     <use xlink:href="#DejaVuSans-Oblique-61" transform="translate(77.001953 0)"/>
     <use xlink:href="#DejaVuSans-Oblique-74" transform="translate(138.28125 0)"/>
     <use xlink:href="#DejaVuSans-Oblique-61" transform="translate(177.490234 0)"/>
     <use xlink:href="#DejaVuSans-Oblique-3a" transform="translate(238.769531 0)"/>
     <use xlink:href="#DejaVuSans-Oblique-20" transform="translate(272.460938 0)"/>
     <use xlink:href="#DejaVuSans-Oblique-49" transform="translate(304.248047 0)"/>
     <use xlink:href="#DejaVuSans-Oblique-41" transform="translate(333.740234 0)"/>
     <use xlink:href="#DejaVuSans-Oblique-50" transform="translate(402.148438 0)"/>
     <use xlink:href="#DejaVuSans-Oblique-57" transform="translate(462.451172 0)"/>
     <use xlink:href="#DejaVuSans-Oblique-53" transform="translate(561.328125 0)"/>
     <use xlink:href="#DejaVuSans-Oblique-20" transform="translate(624.804688 0)"/>
     <use xlink:href="#DejaVuSans-Oblique-52" transform="translate(656.591797 0)"/>
     <use xlink:href="#DejaVuSans-Oblique-31" transform="translate(726.074219 0)"/>
     <use xlink:href="#DejaVuSans-Oblique-34" transform="translate(789.697266 0)"/>
     <use xlink:href="#DejaVuSans-Oblique-2d" transform="translate(853.320312 0)"/>
     <use xlink:href="#DejaVuSans-Oblique-30" transform="translate(889.404297 0)"/>
     <use xlink:href="#DejaVuSans-Oblique-38" transform="translate(953.027344 0)"/>
     <use xlink:href="#DejaVuSans-Oblique-28" transform="translate(1016.650391 0)"/>
     <use xlink:href="#DejaVuSans-Oblique-32" transform="translate(1055.664062 0)"/>
     <use xlink:href="#DejaVuSans-Oblique-30" transform="translate(1119.287109 0)"/>
     <use xlink:href="#DejaVuSans-Oblique-31" transform="translate(1182.910156 0)"/>
     <use xlink:href="#DejaVuSans-Oblique-31" transform="translate(1246.533203 0)"/>
     <use xlink:href="#DejaVuSans-Oblique-29" transform="translate(1310.15625 0)"/>
     <use xlink:href="#DejaVuSans-Oblique-20" transform="translate(1349.169922 0)"/>
     <use xlink:href="#DejaVuSans-Oblique-2b" transform="translate(1380.957031 0)"/>
     <use xlink:href="#DejaVuSans-Oblique-20" transform="translate(1464.746094 0)"/>
     <use xlink:href="#DejaVuSans-Oblique-4c" transform="translate(1496.533203 0)"/>
     <use xlink:href="#DejaVuSans-Oblique-69" transform="translate(1552.246094 0)"/>
     <use xlink:href="#DejaVuSans-Oblique-74" transform="translate(1580.029297 0)"/>
     <use xlink:href="#DejaVuSans-Oblique-65" transform="translate(1619.238281 0)"/>
     <use xlink:href="#DejaVuSans-Oblique-72" transform="translate(1680.761719 0)"/>
     <use xlink:href="#DejaVuSans-Oblique-61" transform="translate(1721.875 0)"/>
     <use xlink:href="#DejaVuSans-Oblique-74" transform="translate(1783.154297 0)"/>
     <use xlink:href="#DejaVuSans-Oblique-75" transform="translate(1822.363281 0)"/>
     <use xlink:href="#DejaVuSans-Oblique-72" transform="translate(1885.742188 0)"/>
     <use xlink:href="#DejaVuSans-Oblique-65" transform="translate(1926.855469 0)"/>
     <use xlink:href="#DejaVuSans-Oblique-20" transform="translate(1988.378906 0)"/>
     <use xlink:href="#DejaVuSans-Oblique-76" transform="translate(2020.166016 0)"/>
     <use xlink:href="#DejaVuSans-Oblique-61" transform="translate(2079.345703 0)"/>
     <use xlink:href="#DejaVuSans-Oblique-6c" transform="translate(2140.625 0)"/>
     <use xlink:href="#DejaVuSans-Oblique-75" transform="translate(2168.408203 0)"/>
     <use xlink:href="#DejaVuSans-Oblique-65" transform="translate(2231.787109 0)"/>
     <use xlink:href="#DejaVuSans-Oblique-73" transform="translate(2293.310547 0)"/>
     <use xlink:href="#DejaVuSans-Oblique-20" transform="translate(2345.410156 0)"/>
     <use xlink:href="#DejaVuSans-Oblique-66" transform="translate(2377.197266 0)"/>
     <use xlink:href="#DejaVuSans-Oblique-6f" transform="translate(2412.402344 0)"/>
     <use xlink:href="#DejaVuSans-Oblique-72" transform="translate(2473.583984 0)"/>
     <use xlink:href="#DejaVuSans-Oblique-20" transform="translate(2514.697266 0)"/>
     <use xlink:href="#DejaVuSans-Oblique-58" transform="translate(2546.484375 0)"/>
     <use xlink:href="#DejaVuSans-Oblique-49" transform="translate(2614.990234 0)"/>
     <use xlink:href="#DejaVuSans-Oblique-2c" transform="translate(2644.482422 0)"/>
     <use xlink:href="#DejaVuSans-Oblique-20" transform="translate(2676.269531 0)"/>
     <use xlink:href="#DejaVuSans-Oblique-49" transform="translate(2708.056641 0)"/>
     <use xlink:href="#DejaVuSans-Oblique-58" transform="translate(2737.548828 0)"/>
     <use xlink:href="#DejaVuSans-Oblique-2c" transform="translate(2806.054688 0)"/>
     <use xlink:href="#DejaVuSans-Oblique-20" transform="translate(2837.841797 0)"/>
     <use xlink:href="#DejaVuSans-Oblique-58" transform="translate(2869.628906 0)"/>
     <use xlink:href="#DejaVuSans-Oblique-2c" transform="translate(2938.134766 0)"/>
     <use xlink:href="#DejaVuSans-Oblique-20" transform="translate(2969.921875 0)"/>
     <use xlink:href="#DejaVuSans-Oblique-58" transform="translate(3001.708984 0)"/>
     <use xlink:href="#DejaVuSans-Oblique-56" transform="translate(3070.214844 0)"/>
    </g>
   </g>
   <g id="text_21">
    <!-- Water Ice Phase Diagram -->
    <g transform="translate(319.231942 20.877187) scale(0.18 -0.18)">
     <defs>
      <path id="DejaVuSans-Bold-57" d="M 191 4666 
L 1344 4666 
L 2150 1275 
L 2950 4666 
L 4109 4666 
L 4909 1275 
L 5716 4666 
L 6859 4666 
L 5759 0 
L 4372 0 
L 3525 3547 
L 2688 0 
L 1300 0 
L 191 4666 
z
" transform="scale(0.015625)"/>
      <path id="DejaVuSans-Bold-49" d="M 588 4666 
L 1791 4666 
L 1791 0 
L 588 0 
L 588 4666 
z
" transform="scale(0.015625)"/>
      <path id="DejaVuSans-Bold-63" d="M 3366 3391 
L 3366 2478 
Q 3138 2634 2908 2709 
Q 2678 2784 2431 2784 
Q 1963 2784 1702 2511 
Q 1441 2238 1441 1747 
Q 1441 1256 1702 982 
Q 1963 709 2431 709 
Q 2694 709 2930 787 
Q 3166 866 3366 1019 
L 3366 103 
Q 3103 6 2833 -42 
Q 2563 -91 2291 -91 
Q 1344 -91 809 395 
Q 275 881 275 1747 
Q 275 2613 809 3098 
Q 1344 3584 2291 3584 
Q 2566 3584 2833 3536 
Q 3100 3488 3366 3391 
z
" transform="scale(0.015625)"/>
      <path id="DejaVuSans-Bold-68" d="M 4056 2131 
L 4056 0 
L 2931 0 
L 2931 347 
L 2931 1625 
Q 2931 2084 2911 2256 
Q 2891 2428 2841 2509 
Q 2775 2619 2662 2680 
Q 2550 2741 2406 2741 
Q 2056 2741 1856 2470 
Q 1656 2200 1656 1722 
L 1656 0 
L 538 0 
L 538 4863 
L 1656 4863 
L 1656 2988 
Q 1909 3294 2193 3439 
Q 2478 3584 2822 3584 
Q 3428 3584 3742 3212 
Q 4056 2841 4056 2131 
z
" transform="scale(0.015625)"/>
      <path id="DejaVuSans-Bold-44" d="M 1791 3756 
L 1791 909 
L 2222 909 
Q 2959 909 3348 1275 
Q 3738 1641 3738 2338 
Q 3738 3031 3350 3393 
Q 2963 3756 2222 3756 
L 1791 3756 
z
M 588 4666 
L 1856 4666 
Q 2919 4666 3439 4514 
Q 3959 4363 4331 4000 
Q 4659 3684 4818 3271 
Q 4978 2859 4978 2338 
Q 4978 1809 4818 1395 
Q 4659 981 4331 666 
Q 3956 303 3431 151 
Q 2906 0 1856 0 
L 588 0 
L 588 4666 
z
" transform="scale(0.015625)"/>
      <path id="DejaVuSans-Bold-69" d="M 538 3500 
L 1656 3500 
L 1656 0 
L 538 0 
L 538 3500 
z
M 538 4863 
L 1656 4863 
L 1656 3950 
L 538 3950 
L 538 4863 
z
" transform="scale(0.015625)"/>
      <path id="DejaVuSans-Bold-67" d="M 2919 594 
Q 2688 288 2409 144 
Q 2131 0 1766 0 
Q 1125 0 706 504 
Q 288 1009 288 1791 
Q 288 2575 706 3076 
Q 1125 3578 1766 3578 
Q 2131 3578 2409 3434 
Q 2688 3291 2919 2981 
L 2919 3500 
L 4044 3500 
L 4044 353 
Q 4044 -491 3511 -936 
Q 2978 -1381 1966 -1381 
Q 1638 -1381 1331 -1331 
Q 1025 -1281 716 -1178 
L 716 -306 
Q 1009 -475 1290 -558 
Q 1572 -641 1856 -641 
Q 2406 -641 2662 -400 
Q 2919 -159 2919 353 
L 2919 594 
z
M 2181 2772 
Q 1834 2772 1640 2515 
Q 1447 2259 1447 1791 
Q 1447 1309 1634 1061 
Q 1822 813 2181 813 
Q 2531 813 2725 1069 
Q 2919 1325 2919 1791 
Q 2919 2259 2725 2515 
Q 2531 2772 2181 2772 
z
" transform="scale(0.015625)"/>
     </defs>
     <use xlink:href="#DejaVuSans-Bold-57"/>
     <use xlink:href="#DejaVuSans-Bold-61" transform="translate(106.677734 0)"/>
     <use xlink:href="#DejaVuSans-Bold-74" transform="translate(174.158203 0)"/>
     <use xlink:href="#DejaVuSans-Bold-65" transform="translate(221.960938 0)"/>
     <use xlink:href="#DejaVuSans-Bold-72" transform="translate(289.783203 0)"/>
     <use xlink:href="#DejaVuSans-Bold-20" transform="translate(339.099609 0)"/>
     <use xlink:href="#DejaVuSans-Bold-49" transform="translate(373.914062 0)"/>
     <use xlink:href="#DejaVuSans-Bold-63" transform="translate(411.121094 0)"/>
     <use xlink:href="#DejaVuSans-Bold-65" transform="translate(470.398438 0)"/>
     <use xlink:href="#DejaVuSans-Bold-20" transform="translate(538.220703 0)"/>
     <use xlink:href="#DejaVuSans-Bold-50" transform="translate(573.035156 0)"/>
     <use xlink:href="#DejaVuSans-Bold-68" transform="translate(646.326172 0)"/>
     <use xlink:href="#DejaVuSans-Bold-61" transform="translate(717.517578 0)"/>
     <use xlink:href="#DejaVuSans-Bold-73" transform="translate(784.998047 0)"/>
     <use xlink:href="#DejaVuSans-Bold-65" transform="translate(844.519531 0)"/>
     <use xlink:href="#DejaVuSans-Bold-20" transform="translate(912.341797 0)"/>
     <use xlink:href="#DejaVuSans-Bold-44" transform="translate(947.15625 0)"/>
     <use xlink:href="#DejaVuSans-Bold-69" transform="translate(1030.164062 0)"/>
     <use xlink:href="#DejaVuSans-Bold-61" transform="translate(1064.441406 0)"/>
     <use xlink:href="#DejaVuSans-Bold-67" transform="translate(1131.921875 0)"/>
     <use xlink:href="#DejaVuSans-Bold-72" transform="translate(1203.503906 0)"/>
     <use xlink:href="#DejaVuSans-Bold-61" transform="translate(1252.820312 0)"/>
     <use xlink:href="#DejaVuSans-Bold-6d" transform="translate(1320.300781 0)"/>
    </g>
   </g>
   <g id="text_22">
    <!-- X -->
    <g style="opacity: 0.8" transform="translate(440.490468 64.280491) scale(0.14 -0.14)">
     <defs>
      <path id="DejaVuSans-Bold-58" d="M 3188 2381 
L 4806 0 
L 3553 0 
L 2463 1594 
L 1381 0 
L 122 0 
L 1741 2381 
L 184 4666 
L 1441 4666 
L 2463 3163 
L 3481 4666 
L 4744 4666 
L 3188 2381 
z
" transform="scale(0.015625)"/>
     </defs>
     <use xlink:href="#DejaVuSans-Bold-58"/>
    </g>
   </g>
   <g id="text_23">
    <!-- VIII -->
    <g style="opacity: 0.8" transform="translate(240.728455 128.160137) scale(0.14 -0.14)">
     <defs>
      <path id="DejaVuSans-Bold-56" d="M 31 4666 
L 1241 4666 
L 2478 1222 
L 3713 4666 
L 4922 4666 
L 3194 0 
L 1759 0 
L 31 4666 
z
" transform="scale(0.015625)"/>
     </defs>
     <use xlink:href="#DejaVuSans-Bold-56"/>
     <use xlink:href="#DejaVuSans-Bold-49" transform="translate(77.392578 0)"/>
     <use xlink:href="#DejaVuSans-Bold-49" transform="translate(114.599609 0)"/>
     <use xlink:href="#DejaVuSans-Bold-49" transform="translate(151.806641 0)"/>
    </g>
   </g>
   <g id="text_24">
    <!-- VII -->
    <g style="opacity: 0.8" transform="translate(590.134264 127.368106) scale(0.14 -0.14)">
     <use xlink:href="#DejaVuSans-Bold-56"/>
     <use xlink:href="#DejaVuSans-Bold-49" transform="translate(77.392578 0)"/>
     <use xlink:href="#DejaVuSans-Bold-49" transform="translate(114.599609 0)"/>
    </g>
   </g>
   <g id="text_25">
    <!-- VI -->
    <g style="opacity: 0.8" transform="translate(334.732134 236.967533) scale(0.14 -0.14)">
     <use xlink:href="#DejaVuSans-Bold-56"/>
     <use xlink:href="#DejaVuSans-Bold-49" transform="translate(77.392578 0)"/>
    </g>
   </g>
   <g id="text_26">
    <!-- XV -->
    <g style="opacity: 0.8" transform="translate(88.012021 235.484867) scale(0.14 -0.14)">
     <use xlink:href="#DejaVuSans-Bold-58"/>
     <use xlink:href="#DejaVuSans-Bold-56" transform="translate(77.099609 0)"/>
    </g>
   </g>
   <g id="text_27">
    <!-- V -->
    <g style="opacity: 0.8" transform="translate(395.811013 284.598782) scale(0.14 -0.14)">
     <use xlink:href="#DejaVuSans-Bold-56"/>
    </g>
   </g>
   <g id="text_28">
    <!-- II -->
    <g style="opacity: 0.8" transform="translate(207.554996 279.834469) scale(0.14 -0.14)">
     <use xlink:href="#DejaVuSans-Bold-49"/>
     <use xlink:href="#DejaVuSans-Bold-49" transform="translate(37.207031 0)"/>
    </g>
   </g>
   <g id="text_29">
    <!-- IX -->
    <g style="opacity: 0.8" transform="translate(125.102354 309.739024) scale(0.14 -0.14)">
     <use xlink:href="#DejaVuSans-Bold-49"/>
     <use xlink:href="#DejaVuSans-Bold-58" transform="translate(37.207031 0)"/>
    </g>
   </g>
   <g id="text_30">
    <!-- III -->
    <g style="opacity: 0.8" transform="translate(393.189956 314.203614) scale(0.14 -0.14)">
     <use xlink:href="#DejaVuSans-Bold-49"/>
     <use xlink:href="#DejaVuSans-Bold-49" transform="translate(37.207031 0)"/>
     <use xlink:href="#DejaVuSans-Bold-49" transform="translate(74.414062 0)"/>
    </g>
   </g>
   <g id="text_31">
    <!-- Ih -->
    <g style="opacity: 0.8" transform="translate(254.994372 359.414898) scale(0.14 -0.14)">
     <use xlink:href="#DejaVuSans-Bold-49"/>
     <use xlink:href="#DejaVuSans-Bold-68" transform="translate(37.207031 0)"/>
    </g>
   </g>
   <g id="text_32">
    <!-- XI -->
    <g style="opacity: 0.8" transform="translate(66.458322 360.817018) scale(0.14 -0.14)">
     <use xlink:href="#DejaVuSans-Bold-58"/>
     <use xlink:href="#DejaVuSans-Bold-49" transform="translate(77.099609 0)"/>
    </g>
   </g>
   <g id="text_33">
    <!-- Liquid -->
    <g style="opacity: 0.8" transform="translate(536.473635 391.326455) scale(0.14 -0.14)">
     <defs>
      <path id="DejaVuSans-Bold-4c" d="M 588 4666 
L 1791 4666 
L 1791 909 
L 3903 909 
L 3903 0 
L 588 0 
L 588 4666 
z
" transform="scale(0.015625)"/>
      <path id="DejaVuSans-Bold-71" d="M 2181 2772 
Q 1825 2772 1636 2509 
Q 1447 2247 1447 1747 
Q 1447 1247 1636 984 
Q 1825 722 2181 722 
Q 2541 722 2730 984 
Q 2919 1247 2919 1747 
Q 2919 2247 2730 2509 
Q 2541 2772 2181 2772 
z
M 2919 506 
Q 2688 197 2409 53 
Q 2131 -91 1766 -91 
Q 1119 -91 703 423 
Q 288 938 288 1747 
Q 288 2556 703 3067 
Q 1119 3578 1766 3578 
Q 2131 3578 2409 3434 
Q 2688 3291 2919 2981 
L 2919 3500 
L 4044 3500 
L 4044 -1331 
L 2919 -1331 
L 2919 506 
z
" transform="scale(0.015625)"/>
      <path id="DejaVuSans-Bold-64" d="M 2919 2988 
L 2919 4863 
L 4044 4863 
L 4044 0 
L 2919 0 
L 2919 506 
Q 2688 197 2409 53 
Q 2131 -91 1766 -91 
Q 1119 -91 703 423 
Q 288 938 288 1747 
Q 288 2556 703 3070 
Q 1119 3584 1766 3584 
Q 2128 3584 2408 3439 
Q 2688 3294 2919 2988 
z
M 2181 722 
Q 2541 722 2730 984 
Q 2919 1247 2919 1747 
Q 2919 2247 2730 2509 
Q 2541 2772 2181 2772 
Q 1825 2772 1636 2509 
Q 1447 2247 1447 1747 
Q 1447 1247 1636 984 
Q 1825 722 2181 722 
z
" transform="scale(0.015625)"/>
     </defs>
     <use xlink:href="#DejaVuSans-Bold-4c"/>
     <use xlink:href="#DejaVuSans-Bold-69" transform="translate(63.720703 0)"/>
     <use xlink:href="#DejaVuSans-Bold-71" transform="translate(97.998047 0)"/>
     <use xlink:href="#DejaVuSans-Bold-75" transform="translate(169.580078 0)"/>
     <use xlink:href="#DejaVuSans-Bold-69" transform="translate(240.771484 0)"/>
     <use xlink:href="#DejaVuSans-Bold-64" transform="translate(275.048828 0)"/>
    </g>
   </g>
   <g id="text_34">
    <!-- Vapor -->
    <g style="opacity: 0.8" transform="translate(746.877024 601.313122) scale(0.14 -0.14)">
     <defs>
      <path id="DejaVuSans-Bold-6f" d="M 2203 2784 
Q 1831 2784 1636 2517 
Q 1441 2250 1441 1747 
Q 1441 1244 1636 976 
Q 1831 709 2203 709 
Q 2569 709 2762 976 
Q 2956 1244 2956 1747 
Q 2956 2250 2762 2517 
Q 2569 2784 2203 2784 
z
M 2203 3584 
Q 3106 3584 3614 3096 
Q 4122 2609 4122 1747 
Q 4122 884 3614 396 
Q 3106 -91 2203 -91 
Q 1297 -91 786 396 
Q 275 884 275 1747 
Q 275 2609 786 3096 
Q 1297 3584 2203 3584 
z
" transform="scale(0.015625)"/>
     </defs>
     <use xlink:href="#DejaVuSans-Bold-56"/>
     <use xlink:href="#DejaVuSans-Bold-61" transform="translate(71.892578 0)"/>
     <use xlink:href="#DejaVuSans-Bold-70" transform="translate(139.373047 0)"/>
     <use xlink:href="#DejaVuSans-Bold-6f" transform="translate(210.955078 0)"/>
     <use xlink:href="#DejaVuSans-Bold-72" transform="translate(279.65625 0)"/>
    </g>
   </g>
   <g id="line2d_137">
    <defs>
     <path id="m58d53df73c" d="M 0 2.5 
C 0.663008 2.5 1.29895 2.236584 1.767767 1.767767 
C 2.236584 1.29895 2.5 0.663008 2.5 0 
C 2.5 -0.663008 2.236584 -1.29895 1.767767 -1.767767 
C 1.29895 -2.236584 0.663008 -2.5 0 -2.5 
C -0.663008 -2.5 -1.29895 -2.236584 -1.767767 -1.767767 
C -2.236584 -1.29895 -2.5 -0.663008 -2.5 0 
C -2.5 0.663008 -2.236584 1.29895 -1.767767 1.767767 
C -1.29895 2.236584 -0.663008 2.5 0 2.5 
z
" style="stroke: #ffffff; stroke-width: 0.5"/>
    </defs>
    <g clip-path="url(#p85b9644278)">
     <use xlink:href="#m58d53df73c" x="405.892463" y="322.5724" style="stroke: #ffffff; stroke-width: 0.5"/>
    </g>
   </g>
   <g id="text_35">
    <!-- Ih-III-L -->
    <g style="opacity: 0.7" transform="translate(405.892463 320.433944) scale(0.08 -0.08)">
     <defs>
      <path id="DejaVuSans-49" d="M 628 4666 
L 1259 4666 
L 1259 0 
L 628 0 
L 628 4666 
z
" transform="scale(0.015625)"/>
      <path id="DejaVuSans-68" d="M 3513 2113 
L 3513 0 
L 2938 0 
L 2938 2094 
Q 2938 2591 2744 2837 
Q 2550 3084 2163 3084 
Q 1697 3084 1428 2787 
Q 1159 2491 1159 1978 
L 1159 0 
L 581 0 
L 581 4863 
L 1159 4863 
L 1159 2956 
Q 1366 3272 1645 3428 
Q 1925 3584 2291 3584 
Q 2894 3584 3203 3211 
Q 3513 2838 3513 2113 
z
" transform="scale(0.015625)"/>
      <path id="DejaVuSans-2d" d="M 313 2009 
L 1997 2009 
L 1997 1497 
L 313 1497 
L 313 2009 
z
" transform="scale(0.015625)"/>
      <path id="DejaVuSans-4c" d="M 628 4666 
L 1259 4666 
L 1259 531 
L 3531 531 
L 3531 0 
L 628 0 
L 628 4666 
z
" transform="scale(0.015625)"/>
     </defs>
     <use xlink:href="#DejaVuSans-49"/>
     <use xlink:href="#DejaVuSans-68" transform="translate(29.492188 0)"/>
     <use xlink:href="#DejaVuSans-2d" transform="translate(92.871094 0)"/>
     <use xlink:href="#DejaVuSans-49" transform="translate(128.955078 0)"/>
     <use xlink:href="#DejaVuSans-49" transform="translate(158.447266 0)"/>
     <use xlink:href="#DejaVuSans-49" transform="translate(187.939453 0)"/>
     <use xlink:href="#DejaVuSans-2d" transform="translate(217.431641 0)"/>
     <use xlink:href="#DejaVuSans-4c" transform="translate(253.515625 0)"/>
    </g>
   </g>
   <g id="line2d_138">
    <g clip-path="url(#p85b9644278)">
     <use xlink:href="#m58d53df73c" x="383.903734" y="321.400931" style="stroke: #ffffff; stroke-width: 0.5"/>
    </g>
   </g>
   <g id="text_36">
    <!-- Ih-II-III -->
    <g style="opacity: 0.7" transform="translate(383.903734 319.262475) scale(0.08 -0.08)">
     <use xlink:href="#DejaVuSans-49"/>
     <use xlink:href="#DejaVuSans-68" transform="translate(29.492188 0)"/>
     <use xlink:href="#DejaVuSans-2d" transform="translate(92.871094 0)"/>
     <use xlink:href="#DejaVuSans-49" transform="translate(128.955078 0)"/>
     <use xlink:href="#DejaVuSans-49" transform="translate(158.447266 0)"/>
     <use xlink:href="#DejaVuSans-2d" transform="translate(187.939453 0)"/>
     <use xlink:href="#DejaVuSans-49" transform="translate(224.023438 0)"/>
     <use xlink:href="#DejaVuSans-49" transform="translate(253.515625 0)"/>
     <use xlink:href="#DejaVuSans-49" transform="translate(283.007812 0)"/>
    </g>
   </g>
   <g id="line2d_139">
    <g clip-path="url(#p85b9644278)">
     <use xlink:href="#m58d53df73c" x="401.857274" y="299.48238" style="stroke: #ffffff; stroke-width: 0.5"/>
    </g>
   </g>
   <g id="text_37">
    <!-- II-III-V -->
    <g style="opacity: 0.7" transform="translate(401.857274 297.343924) scale(0.08 -0.08)">
     <defs>
      <path id="DejaVuSans-56" d="M 1831 0 
L 50 4666 
L 709 4666 
L 2188 738 
L 3669 4666 
L 4325 4666 
L 2547 0 
L 1831 0 
z
" transform="scale(0.015625)"/>
     </defs>
     <use xlink:href="#DejaVuSans-49"/>
     <use xlink:href="#DejaVuSans-49" transform="translate(29.492188 0)"/>
     <use xlink:href="#DejaVuSans-2d" transform="translate(58.984375 0)"/>
     <use xlink:href="#DejaVuSans-49" transform="translate(95.068359 0)"/>
     <use xlink:href="#DejaVuSans-49" transform="translate(124.560547 0)"/>
     <use xlink:href="#DejaVuSans-49" transform="translate(154.052734 0)"/>
     <use xlink:href="#DejaVuSans-2d" transform="translate(183.544922 0)"/>
     <use xlink:href="#DejaVuSans-56" transform="translate(213.753906 0)"/>
    </g>
   </g>
   <g id="line2d_140">
    <g clip-path="url(#p85b9644278)">
     <use xlink:href="#m58d53df73c" x="414.607773" y="299.218272" style="stroke: #ffffff; stroke-width: 0.5"/>
    </g>
   </g>
   <g id="text_38">
    <!-- III-V-L -->
    <g style="opacity: 0.7" transform="translate(414.607773 297.079816) scale(0.08 -0.08)">
     <use xlink:href="#DejaVuSans-49"/>
     <use xlink:href="#DejaVuSans-49" transform="translate(29.492188 0)"/>
     <use xlink:href="#DejaVuSans-49" transform="translate(58.984375 0)"/>
     <use xlink:href="#DejaVuSans-2d" transform="translate(88.476562 0)"/>
     <use xlink:href="#DejaVuSans-56" transform="translate(118.685547 0)"/>
     <use xlink:href="#DejaVuSans-2d" transform="translate(181.21875 0)"/>
     <use xlink:href="#DejaVuSans-4c" transform="translate(217.302734 0)"/>
    </g>
   </g>
   <g id="line2d_141">
    <g clip-path="url(#p85b9644278)">
     <use xlink:href="#m58d53df73c" x="349.739717" y="272.661343" style="stroke: #ffffff; stroke-width: 0.5"/>
    </g>
   </g>
   <g id="text_39">
    <!-- II-V-VI -->
    <g style="opacity: 0.7" transform="translate(349.739717 270.522887) scale(0.08 -0.08)">
     <use xlink:href="#DejaVuSans-49"/>
     <use xlink:href="#DejaVuSans-49" transform="translate(29.492188 0)"/>
     <use xlink:href="#DejaVuSans-2d" transform="translate(58.984375 0)"/>
     <use xlink:href="#DejaVuSans-56" transform="translate(89.193359 0)"/>
     <use xlink:href="#DejaVuSans-2d" transform="translate(151.726562 0)"/>
     <use xlink:href="#DejaVuSans-56" transform="translate(181.935547 0)"/>
     <use xlink:href="#DejaVuSans-49" transform="translate(250.34375 0)"/>
    </g>
   </g>
   <g id="line2d_142">
    <g clip-path="url(#p85b9644278)">
     <use xlink:href="#m58d53df73c" x="444.492573" y="272.229478" style="stroke: #ffffff; stroke-width: 0.5"/>
    </g>
   </g>
   <g id="text_40">
    <!-- V-VI-L -->
    <g style="opacity: 0.7" transform="translate(444.492573 270.091022) scale(0.08 -0.08)">
     <use xlink:href="#DejaVuSans-56"/>
     <use xlink:href="#DejaVuSans-2d" transform="translate(62.533203 0)"/>
     <use xlink:href="#DejaVuSans-56" transform="translate(92.742188 0)"/>
     <use xlink:href="#DejaVuSans-49" transform="translate(161.150391 0)"/>
     <use xlink:href="#DejaVuSans-2d" transform="translate(190.642578 0)"/>
     <use xlink:href="#DejaVuSans-4c" transform="translate(226.726562 0)"/>
    </g>
   </g>
   <g id="line2d_143">
    <g clip-path="url(#p85b9644278)">
     <use xlink:href="#m58d53df73c" x="586.447551" y="214.911755" style="stroke: #ffffff; stroke-width: 0.5"/>
    </g>
   </g>
   <g id="text_41">
    <!-- VI-VII-L -->
    <g style="opacity: 0.7" transform="translate(586.447551 212.7733) scale(0.08 -0.08)">
     <use xlink:href="#DejaVuSans-56"/>
     <use xlink:href="#DejaVuSans-49" transform="translate(68.408203 0)"/>
     <use xlink:href="#DejaVuSans-2d" transform="translate(97.900391 0)"/>
     <use xlink:href="#DejaVuSans-56" transform="translate(128.109375 0)"/>
     <use xlink:href="#DejaVuSans-49" transform="translate(196.517578 0)"/>
     <use xlink:href="#DejaVuSans-49" transform="translate(226.009766 0)"/>
     <use xlink:href="#DejaVuSans-2d" transform="translate(255.501953 0)"/>
     <use xlink:href="#DejaVuSans-4c" transform="translate(291.585938 0)"/>
    </g>
   </g>
   <g id="line2d_144">
    <g clip-path="url(#p85b9644278)">
     <use xlink:href="#m58d53df73c" x="452.667534" y="217.032976" style="stroke: #ffffff; stroke-width: 0.5"/>
    </g>
   </g>
   <g id="text_42">
    <!-- VI-VII-VIII -->
    <g style="opacity: 0.7" transform="translate(452.667534 214.89452) scale(0.08 -0.08)">
     <use xlink:href="#DejaVuSans-56"/>
     <use xlink:href="#DejaVuSans-49" transform="translate(68.408203 0)"/>
     <use xlink:href="#DejaVuSans-2d" transform="translate(97.900391 0)"/>
     <use xlink:href="#DejaVuSans-56" transform="translate(128.109375 0)"/>
     <use xlink:href="#DejaVuSans-49" transform="translate(196.517578 0)"/>
     <use xlink:href="#DejaVuSans-49" transform="translate(226.009766 0)"/>
     <use xlink:href="#DejaVuSans-2d" transform="translate(255.501953 0)"/>
     <use xlink:href="#DejaVuSans-56" transform="translate(285.710938 0)"/>
     <use xlink:href="#DejaVuSans-49" transform="translate(354.119141 0)"/>
     <use xlink:href="#DejaVuSans-49" transform="translate(383.611328 0)"/>
     <use xlink:href="#DejaVuSans-49" transform="translate(413.103516 0)"/>
    </g>
   </g>
   <g id="line2d_145">
    <g clip-path="url(#p85b9644278)">
     <use xlink:href="#m58d53df73c" x="212.124964" y="305.762637" style="stroke: #ffffff; stroke-width: 0.5"/>
    </g>
   </g>
   <g id="text_43">
    <!-- III-IX -->
    <g style="opacity: 0.7" transform="translate(212.124964 303.624181) scale(0.08 -0.08)">
     <defs>
      <path id="DejaVuSans-58" d="M 403 4666 
L 1081 4666 
L 2241 2931 
L 3406 4666 
L 4084 4666 
L 2584 2425 
L 4184 0 
L 3506 0 
L 2194 1984 
L 872 0 
L 191 0 
L 1856 2491 
L 403 4666 
z
" transform="scale(0.015625)"/>
     </defs>
     <use xlink:href="#DejaVuSans-49"/>
     <use xlink:href="#DejaVuSans-49" transform="translate(29.492188 0)"/>
     <use xlink:href="#DejaVuSans-49" transform="translate(58.984375 0)"/>
     <use xlink:href="#DejaVuSans-2d" transform="translate(88.476562 0)"/>
     <use xlink:href="#DejaVuSans-49" transform="translate(124.560547 0)"/>
     <use xlink:href="#DejaVuSans-58" transform="translate(154.052734 0)"/>
    </g>
   </g>
   <g id="line2d_146">
    <g clip-path="url(#p85b9644278)">
     <use xlink:href="#m58d53df73c" x="491.014901" y="95.77597" style="stroke: #ffffff; stroke-width: 0.5"/>
    </g>
   </g>
   <g id="text_44">
    <!-- VII-X -->
    <g style="opacity: 0.7" transform="translate(491.014901 93.637514) scale(0.08 -0.08)">
     <use xlink:href="#DejaVuSans-56"/>
     <use xlink:href="#DejaVuSans-49" transform="translate(68.408203 0)"/>
     <use xlink:href="#DejaVuSans-49" transform="translate(97.900391 0)"/>
     <use xlink:href="#DejaVuSans-2d" transform="translate(127.392578 0)"/>
     <use xlink:href="#DejaVuSans-58" transform="translate(158.476562 0)"/>
    </g>
   </g>
   <g id="line2d_147">
    <g clip-path="url(#p85b9644278)">
     <use xlink:href="#m58d53df73c" x="142.40248" y="246.517898" style="stroke: #ffffff; stroke-width: 0.5"/>
    </g>
   </g>
   <g id="text_45">
    <!-- VI-XV -->
    <g style="opacity: 0.7" transform="translate(142.40248 244.379442) scale(0.08 -0.08)">
     <use xlink:href="#DejaVuSans-56"/>
     <use xlink:href="#DejaVuSans-49" transform="translate(68.408203 0)"/>
     <use xlink:href="#DejaVuSans-2d" transform="translate(97.900391 0)"/>
     <use xlink:href="#DejaVuSans-58" transform="translate(128.984375 0)"/>
     <use xlink:href="#DejaVuSans-56" transform="translate(197.490234 0)"/>
    </g>
   </g>
   <g id="line2d_148">
    <defs>
     <path id="m02486cce20" d="M 0 7.5 
C 1.989023 7.5 3.896849 6.709753 5.303301 5.303301 
C 6.709753 3.896849 7.5 1.989023 7.5 0 
C 7.5 -1.989023 6.709753 -3.896849 5.303301 -5.303301 
C 3.896849 -6.709753 1.989023 -7.5 0 -7.5 
C -1.989023 -7.5 -3.896849 -6.709753 -5.303301 -5.303301 
C -6.709753 -3.896849 -7.5 -1.989023 -7.5 0 
C -7.5 1.989023 -6.709753 3.896849 -5.303301 5.303301 
C -3.896849 6.709753 -1.989023 7.5 0 7.5 
z
" style="stroke: #000000; stroke-width: 2"/>
    </defs>
    <g clip-path="url(#p85b9644278)">
     <use xlink:href="#m02486cce20" x="443.952224" y="670.837187" style="fill: #ff0000; stroke: #000000; stroke-width: 2"/>
    </g>
   </g>
  </g>
 </g>
 <defs>
  <clipPath id="p85b9644278">
   <rect x="55.249375" y="40.877187" width="784.377946" height="629.96"/>
  </clipPath>
 </defs>
</svg>
